<svg class="ldp-dust" width="200px"  height="200px"  xmlns="http://www.w3.org/2000/svg" xmlns:xlink="http://www.w3.org/1999/xlink" preserveAspectRatio="xMidYMid" style="background: none;"><defs>
  <pattern id="ldp-7df80fbf7f0a1" x="0" y="0" width="200" height="200" patternUnits="userSpaceOnUse">
    <g transform="translate(0 44.5321)">
<animateTransform attributeName="transform" type="translate" values="0 0;0 200" keyTimes="0;1" repeatCount="indefinite" dur="10s" begin="-7.476606983191742s"></animateTransform>
<g transform="translate(4.280504518649569 -73.0258853050747)"><g transform="scale(0.40584158919149327)">
<path d="M5.3,1.8C4.2,1.2,2.6,1.7,1.8,2.6s-1,2.4-0.7,3.7c0.1,0.4,0.3,0.8,0.5,1.1C2,7.8,2.4,8,2.9,8.2c2.1,0.7,4.6-0.1,5.9-2 C8.9,6,9,5.8,9,5.6C9,5.4,8.9,5.2,8.8,5c-0.3-0.6-0.5-1.2-1-1.7C7.2,2.6,6.3,2.1,5.3,1.8z" fill="#28292f" transform="translate(-5 -5)"></path>
</g></g></g><g transform="translate(0 44.5321)">
<animateTransform attributeName="transform" type="translate" values="0 0;0 200" keyTimes="0;1" repeatCount="indefinite" dur="10s" begin="-7.476606983191742s"></animateTransform>
<g transform="translate(4.280504518649569 126.9741146949253)"><g transform="scale(0.40584158919149327)">
<path d="M5.3,1.8C4.2,1.2,2.6,1.7,1.8,2.6s-1,2.4-0.7,3.7c0.1,0.4,0.3,0.8,0.5,1.1C2,7.8,2.4,8,2.9,8.2c2.1,0.7,4.6-0.1,5.9-2 C8.9,6,9,5.8,9,5.6C9,5.4,8.9,5.2,8.8,5c-0.3-0.6-0.5-1.2-1-1.7C7.2,2.6,6.3,2.1,5.3,1.8z" fill="#28292f" transform="translate(-5 -5)"></path>
</g></g></g><g transform="translate(0 44.5321)">
<animateTransform attributeName="transform" type="translate" values="0 0;0 200" keyTimes="0;1" repeatCount="indefinite" dur="10s" begin="-7.476606983191742s"></animateTransform>
<g transform="translate(4.280504518649569 326.97411469492533)"><g transform="scale(0.40584158919149327)">
<path d="M5.3,1.8C4.2,1.2,2.6,1.7,1.8,2.6s-1,2.4-0.7,3.7c0.1,0.4,0.3,0.8,0.5,1.1C2,7.8,2.4,8,2.9,8.2c2.1,0.7,4.6-0.1,5.9-2 C8.9,6,9,5.8,9,5.6C9,5.4,8.9,5.2,8.8,5c-0.3-0.6-0.5-1.2-1-1.7C7.2,2.6,6.3,2.1,5.3,1.8z" fill="#28292f" transform="translate(-5 -5)"></path>
</g></g></g><g transform="translate(0 21.5417)">
<animateTransform attributeName="transform" type="translate" values="0 0;0 200" keyTimes="0;1" repeatCount="indefinite" dur="5s" begin="-0.788542549865193s"></animateTransform>
<g transform="translate(77.73524191832102 -122.10800556669132)"><g transform="scale(0.6864680411199008)">
<path d="M3.1,3.7C3.9,2.9,5,2.5,5.8,1.8c0.3-0.3,0.6-0.6,1-0.7c0.6-0.2,1.2,0.1,1.7,0C8,3.3,8.2,5.6,8.2,7.8c0,0,0,0.1,0,0.1 c0,0.1-0.1,0.1-0.2,0.1c-1.3,0.5-2.7,0.3-4,0.8C3.9,8.9,3.8,9,3.6,9C3.4,9,3.3,8.9,3.2,8.7C2.9,8.4,1.7,7.1,1.4,7.3 C1.6,7,1.7,6.6,1.8,6.2L3.1,3.7z" fill="#ffffff" transform="translate(-5 -5)"></path>
</g></g></g><g transform="translate(0 21.5417)">
<animateTransform attributeName="transform" type="translate" values="0 0;0 200" keyTimes="0;1" repeatCount="indefinite" dur="5s" begin="-0.788542549865193s"></animateTransform>
<g transform="translate(77.73524191832102 77.89199443330868)"><g transform="scale(0.6864680411199008)">
<path d="M3.1,3.7C3.9,2.9,5,2.5,5.8,1.8c0.3-0.3,0.6-0.6,1-0.7c0.6-0.2,1.2,0.1,1.7,0C8,3.3,8.2,5.6,8.2,7.8c0,0,0,0.1,0,0.1 c0,0.1-0.1,0.1-0.2,0.1c-1.3,0.5-2.7,0.3-4,0.8C3.9,8.9,3.8,9,3.6,9C3.4,9,3.3,8.9,3.2,8.7C2.9,8.4,1.7,7.1,1.4,7.3 C1.6,7,1.7,6.6,1.8,6.2L3.1,3.7z" fill="#ffffff" transform="translate(-5 -5)"></path>
</g></g></g><g transform="translate(0 21.5417)">
<animateTransform attributeName="transform" type="translate" values="0 0;0 200" keyTimes="0;1" repeatCount="indefinite" dur="5s" begin="-0.788542549865193s"></animateTransform>
<g transform="translate(77.73524191832102 277.8919944333087)"><g transform="scale(0.6864680411199008)">
<path d="M3.1,3.7C3.9,2.9,5,2.5,5.8,1.8c0.3-0.3,0.6-0.6,1-0.7c0.6-0.2,1.2,0.1,1.7,0C8,3.3,8.2,5.6,8.2,7.8c0,0,0,0.1,0,0.1 c0,0.1-0.1,0.1-0.2,0.1c-1.3,0.5-2.7,0.3-4,0.8C3.9,8.9,3.8,9,3.6,9C3.4,9,3.3,8.9,3.2,8.7C2.9,8.4,1.7,7.1,1.4,7.3 C1.6,7,1.7,6.6,1.8,6.2L3.1,3.7z" fill="#ffffff" transform="translate(-5 -5)"></path>
</g></g></g><g transform="translate(0 157.694)">
<animateTransform attributeName="transform" type="translate" values="0 0;0 200" keyTimes="0;1" repeatCount="indefinite" dur="5s" begin="-4.192355569930738s"></animateTransform>
<g transform="translate(74.30478337199224 -79.98597377512999)"><g transform="scale(0.30660288072761144)">
<path d="M1.8,8.9c0.6-1.3,1.2-2.6,1.8-4c0.4-0.8,0.8-1.7,1.3-2.4S6.2,1.2,7.1,1c0.4,0.8,1,1.5,1.1,2.4C8.3,4.1,8,4.9,7.6,5.6 S6.6,6.8,6,7.3C5.6,7.8,5.1,8.2,4.5,8.4C3.7,8.8,2.7,8.6,1.9,9L1.8,8.9z" fill="#f9ae5c" transform="translate(-5 -5)"></path>
</g></g></g><g transform="translate(0 157.694)">
<animateTransform attributeName="transform" type="translate" values="0 0;0 200" keyTimes="0;1" repeatCount="indefinite" dur="5s" begin="-4.192355569930738s"></animateTransform>
<g transform="translate(74.30478337199224 120.01402622487001)"><g transform="scale(0.30660288072761144)">
<path d="M1.8,8.9c0.6-1.3,1.2-2.6,1.8-4c0.4-0.8,0.8-1.7,1.3-2.4S6.2,1.2,7.1,1c0.4,0.8,1,1.5,1.1,2.4C8.3,4.1,8,4.9,7.6,5.6 S6.6,6.8,6,7.3C5.6,7.8,5.1,8.2,4.5,8.4C3.7,8.8,2.7,8.6,1.9,9L1.8,8.9z" fill="#f9ae5c" transform="translate(-5 -5)"></path>
</g></g></g><g transform="translate(0 157.694)">
<animateTransform attributeName="transform" type="translate" values="0 0;0 200" keyTimes="0;1" repeatCount="indefinite" dur="5s" begin="-4.192355569930738s"></animateTransform>
<g transform="translate(74.30478337199224 320.01402622487)"><g transform="scale(0.30660288072761144)">
<path d="M1.8,8.9c0.6-1.3,1.2-2.6,1.8-4c0.4-0.8,0.8-1.7,1.3-2.4S6.2,1.2,7.1,1c0.4,0.8,1,1.5,1.1,2.4C8.3,4.1,8,4.9,7.6,5.6 S6.6,6.8,6,7.3C5.6,7.8,5.1,8.2,4.5,8.4C3.7,8.8,2.7,8.6,1.9,9L1.8,8.9z" fill="#f9ae5c" transform="translate(-5 -5)"></path>
</g></g></g><g transform="translate(0 167.062)">
<animateTransform attributeName="transform" type="translate" values="0 0;0 200" keyTimes="0;1" repeatCount="indefinite" dur="3.3333333333333335s" begin="-4.7010265581444s"></animateTransform>
<g transform="translate(112.86735786734434 -34.82142823710717)"><g transform="scale(0.388211658236149)">
<path d="M5.3,1.8C4.2,1.2,2.6,1.7,1.8,2.6s-1,2.4-0.7,3.7c0.1,0.4,0.3,0.8,0.5,1.1C2,7.8,2.4,8,2.9,8.2c2.1,0.7,4.6-0.1,5.9-2 C8.9,6,9,5.8,9,5.6C9,5.4,8.9,5.2,8.8,5c-0.3-0.6-0.5-1.2-1-1.7C7.2,2.6,6.3,2.1,5.3,1.8z" fill="#e4812f" transform="translate(-5 -5)"></path>
</g></g></g><g transform="translate(0 167.062)">
<animateTransform attributeName="transform" type="translate" values="0 0;0 200" keyTimes="0;1" repeatCount="indefinite" dur="3.3333333333333335s" begin="-4.7010265581444s"></animateTransform>
<g transform="translate(112.86735786734434 165.17857176289283)"><g transform="scale(0.388211658236149)">
<path d="M5.3,1.8C4.2,1.2,2.6,1.7,1.8,2.6s-1,2.4-0.7,3.7c0.1,0.4,0.3,0.8,0.5,1.1C2,7.8,2.4,8,2.9,8.2c2.1,0.7,4.6-0.1,5.9-2 C8.9,6,9,5.8,9,5.6C9,5.4,8.9,5.2,8.8,5c-0.3-0.6-0.5-1.2-1-1.7C7.2,2.6,6.3,2.1,5.3,1.8z" fill="#e4812f" transform="translate(-5 -5)"></path>
</g></g></g><g transform="translate(0 167.062)">
<animateTransform attributeName="transform" type="translate" values="0 0;0 200" keyTimes="0;1" repeatCount="indefinite" dur="3.3333333333333335s" begin="-4.7010265581444s"></animateTransform>
<g transform="translate(112.86735786734434 365.17857176289283)"><g transform="scale(0.388211658236149)">
<path d="M5.3,1.8C4.2,1.2,2.6,1.7,1.8,2.6s-1,2.4-0.7,3.7c0.1,0.4,0.3,0.8,0.5,1.1C2,7.8,2.4,8,2.9,8.2c2.1,0.7,4.6-0.1,5.9-2 C8.9,6,9,5.8,9,5.6C9,5.4,8.9,5.2,8.8,5c-0.3-0.6-0.5-1.2-1-1.7C7.2,2.6,6.3,2.1,5.3,1.8z" fill="#e4812f" transform="translate(-5 -5)"></path>
</g></g></g><g transform="translate(0 141.176)">
<animateTransform attributeName="transform" type="translate" values="0 0;0 200" keyTimes="0;1" repeatCount="indefinite" dur="5s" begin="-3.7794068488044967s"></animateTransform>
<g transform="translate(20.09041859087361 -86.77456884440585)"><g transform="scale(0.5175617174611636)">
<path d="M1.8,8.9c0.6-1.3,1.2-2.6,1.8-4c0.4-0.8,0.8-1.7,1.3-2.4S6.2,1.2,7.1,1c0.4,0.8,1,1.5,1.1,2.4C8.3,4.1,8,4.9,7.6,5.6 S6.6,6.8,6,7.3C5.6,7.8,5.1,8.2,4.5,8.4C3.7,8.8,2.7,8.6,1.9,9L1.8,8.9z" fill="#0a0a0a" transform="translate(-5 -5)"></path>
</g></g></g><g transform="translate(0 141.176)">
<animateTransform attributeName="transform" type="translate" values="0 0;0 200" keyTimes="0;1" repeatCount="indefinite" dur="5s" begin="-3.7794068488044967s"></animateTransform>
<g transform="translate(20.09041859087361 113.22543115559415)"><g transform="scale(0.5175617174611636)">
<path d="M1.8,8.9c0.6-1.3,1.2-2.6,1.8-4c0.4-0.8,0.8-1.7,1.3-2.4S6.2,1.2,7.1,1c0.4,0.8,1,1.5,1.1,2.4C8.3,4.1,8,4.9,7.6,5.6 S6.6,6.8,6,7.3C5.6,7.8,5.1,8.2,4.5,8.4C3.7,8.8,2.7,8.6,1.9,9L1.8,8.9z" fill="#0a0a0a" transform="translate(-5 -5)"></path>
</g></g></g><g transform="translate(0 141.176)">
<animateTransform attributeName="transform" type="translate" values="0 0;0 200" keyTimes="0;1" repeatCount="indefinite" dur="5s" begin="-3.7794068488044967s"></animateTransform>
<g transform="translate(20.09041859087361 313.22543115559415)"><g transform="scale(0.5175617174611636)">
<path d="M1.8,8.9c0.6-1.3,1.2-2.6,1.8-4c0.4-0.8,0.8-1.7,1.3-2.4S6.2,1.2,7.1,1c0.4,0.8,1,1.5,1.1,2.4C8.3,4.1,8,4.9,7.6,5.6 S6.6,6.8,6,7.3C5.6,7.8,5.1,8.2,4.5,8.4C3.7,8.8,2.7,8.6,1.9,9L1.8,8.9z" fill="#0a0a0a" transform="translate(-5 -5)"></path>
</g></g></g><g transform="translate(0 13.9008)">
<animateTransform attributeName="transform" type="translate" values="0 0;0 200" keyTimes="0;1" repeatCount="indefinite" dur="2.5s" begin="-5.423759876027264s"></animateTransform>
<g transform="translate(129.29901546259407 -4.0524284577900005)"><g transform="scale(0.6800164613721009)">
<path d="M1.8,8.9c0.6-1.3,1.2-2.6,1.8-4c0.4-0.8,0.8-1.7,1.3-2.4S6.2,1.2,7.1,1c0.4,0.8,1,1.5,1.1,2.4C8.3,4.1,8,4.9,7.6,5.6 S6.6,6.8,6,7.3C5.6,7.8,5.1,8.2,4.5,8.4C3.7,8.8,2.7,8.6,1.9,9L1.8,8.9z" fill="#f9ae5c" transform="translate(-5 -5)"></path>
</g></g></g><g transform="translate(0 13.9008)">
<animateTransform attributeName="transform" type="translate" values="0 0;0 200" keyTimes="0;1" repeatCount="indefinite" dur="2.5s" begin="-5.423759876027264s"></animateTransform>
<g transform="translate(129.29901546259407 195.94757154221)"><g transform="scale(0.6800164613721009)">
<path d="M1.8,8.9c0.6-1.3,1.2-2.6,1.8-4c0.4-0.8,0.8-1.7,1.3-2.4S6.2,1.2,7.1,1c0.4,0.8,1,1.5,1.1,2.4C8.3,4.1,8,4.9,7.6,5.6 S6.6,6.8,6,7.3C5.6,7.8,5.1,8.2,4.5,8.4C3.7,8.8,2.7,8.6,1.9,9L1.8,8.9z" fill="#f9ae5c" transform="translate(-5 -5)"></path>
</g></g></g><g transform="translate(0 13.9008)">
<animateTransform attributeName="transform" type="translate" values="0 0;0 200" keyTimes="0;1" repeatCount="indefinite" dur="2.5s" begin="-5.423759876027264s"></animateTransform>
<g transform="translate(129.29901546259407 395.94757154220997)"><g transform="scale(0.6800164613721009)">
<path d="M1.8,8.9c0.6-1.3,1.2-2.6,1.8-4c0.4-0.8,0.8-1.7,1.3-2.4S6.2,1.2,7.1,1c0.4,0.8,1,1.5,1.1,2.4C8.3,4.1,8,4.9,7.6,5.6 S6.6,6.8,6,7.3C5.6,7.8,5.1,8.2,4.5,8.4C3.7,8.8,2.7,8.6,1.9,9L1.8,8.9z" fill="#f9ae5c" transform="translate(-5 -5)"></path>
</g></g></g><g transform="translate(0 104.708)">
<animateTransform attributeName="transform" type="translate" values="0 0;0 200" keyTimes="0;1" repeatCount="indefinite" dur="5s" begin="-2.867708623653453s"></animateTransform>
<g transform="translate(10.714978875514735 -96.88832661401952)"><g transform="scale(0.4545751128147365)">
<path d="M5.3,1.8C4.2,1.2,2.6,1.7,1.8,2.6s-1,2.4-0.7,3.7c0.1,0.4,0.3,0.8,0.5,1.1C2,7.8,2.4,8,2.9,8.2c2.1,0.7,4.6-0.1,5.9-2 C8.9,6,9,5.8,9,5.6C9,5.4,8.9,5.2,8.8,5c-0.3-0.6-0.5-1.2-1-1.7C7.2,2.6,6.3,2.1,5.3,1.8z" fill="#ffffff" transform="translate(-5 -5)"></path>
</g></g></g><g transform="translate(0 104.708)">
<animateTransform attributeName="transform" type="translate" values="0 0;0 200" keyTimes="0;1" repeatCount="indefinite" dur="5s" begin="-2.867708623653453s"></animateTransform>
<g transform="translate(10.714978875514735 103.11167338598048)"><g transform="scale(0.4545751128147365)">
<path d="M5.3,1.8C4.2,1.2,2.6,1.7,1.8,2.6s-1,2.4-0.7,3.7c0.1,0.4,0.3,0.8,0.5,1.1C2,7.8,2.4,8,2.9,8.2c2.1,0.7,4.6-0.1,5.9-2 C8.9,6,9,5.8,9,5.6C9,5.4,8.9,5.2,8.8,5c-0.3-0.6-0.5-1.2-1-1.7C7.2,2.6,6.3,2.1,5.3,1.8z" fill="#ffffff" transform="translate(-5 -5)"></path>
</g></g></g><g transform="translate(0 104.708)">
<animateTransform attributeName="transform" type="translate" values="0 0;0 200" keyTimes="0;1" repeatCount="indefinite" dur="5s" begin="-2.867708623653453s"></animateTransform>
<g transform="translate(10.714978875514735 303.11167338598045)"><g transform="scale(0.4545751128147365)">
<path d="M5.3,1.8C4.2,1.2,2.6,1.7,1.8,2.6s-1,2.4-0.7,3.7c0.1,0.4,0.3,0.8,0.5,1.1C2,7.8,2.4,8,2.9,8.2c2.1,0.7,4.6-0.1,5.9-2 C8.9,6,9,5.8,9,5.6C9,5.4,8.9,5.2,8.8,5c-0.3-0.6-0.5-1.2-1-1.7C7.2,2.6,6.3,2.1,5.3,1.8z" fill="#ffffff" transform="translate(-5 -5)"></path>
</g></g></g><g transform="translate(0 133.649)">
<animateTransform attributeName="transform" type="translate" values="0 0;0 200" keyTimes="0;1" repeatCount="indefinite" dur="3.3333333333333335s" begin="-4.144145340282412s"></animateTransform>
<g transform="translate(75.6637283373083 -153.9041777325126)"><g transform="scale(0.5709396957474684)">
<path d="M1.8,8.9c0.6-1.3,1.2-2.6,1.8-4c0.4-0.8,0.8-1.7,1.3-2.4S6.2,1.2,7.1,1c0.4,0.8,1,1.5,1.1,2.4C8.3,4.1,8,4.9,7.6,5.6 S6.6,6.8,6,7.3C5.6,7.8,5.1,8.2,4.5,8.4C3.7,8.8,2.7,8.6,1.9,9L1.8,8.9z" fill="#28292f" transform="translate(-5 -5)"></path>
</g></g></g><g transform="translate(0 133.649)">
<animateTransform attributeName="transform" type="translate" values="0 0;0 200" keyTimes="0;1" repeatCount="indefinite" dur="3.3333333333333335s" begin="-4.144145340282412s"></animateTransform>
<g transform="translate(75.6637283373083 46.095822267487385)"><g transform="scale(0.5709396957474684)">
<path d="M1.8,8.9c0.6-1.3,1.2-2.6,1.8-4c0.4-0.8,0.8-1.7,1.3-2.4S6.2,1.2,7.1,1c0.4,0.8,1,1.5,1.1,2.4C8.3,4.1,8,4.9,7.6,5.6 S6.6,6.8,6,7.3C5.6,7.8,5.1,8.2,4.5,8.4C3.7,8.8,2.7,8.6,1.9,9L1.8,8.9z" fill="#28292f" transform="translate(-5 -5)"></path>
</g></g></g><g transform="translate(0 133.649)">
<animateTransform attributeName="transform" type="translate" values="0 0;0 200" keyTimes="0;1" repeatCount="indefinite" dur="3.3333333333333335s" begin="-4.144145340282412s"></animateTransform>
<g transform="translate(75.6637283373083 246.0958222674874)"><g transform="scale(0.5709396957474684)">
<path d="M1.8,8.9c0.6-1.3,1.2-2.6,1.8-4c0.4-0.8,0.8-1.7,1.3-2.4S6.2,1.2,7.1,1c0.4,0.8,1,1.5,1.1,2.4C8.3,4.1,8,4.9,7.6,5.6 S6.6,6.8,6,7.3C5.6,7.8,5.1,8.2,4.5,8.4C3.7,8.8,2.7,8.6,1.9,9L1.8,8.9z" fill="#28292f" transform="translate(-5 -5)"></path>
</g></g></g><g transform="translate(0 139.438)">
<animateTransform attributeName="transform" type="translate" values="0 0;0 200" keyTimes="0;1" repeatCount="indefinite" dur="2.5s" begin="-9.492977631809818s"></animateTransform>
<g transform="translate(136.72505510680367 -126.50409344188594)"><g transform="scale(0.10844172625620074)">
<path d="M3.1,3.7C3.9,2.9,5,2.5,5.8,1.8c0.3-0.3,0.6-0.6,1-0.7c0.6-0.2,1.2,0.1,1.7,0C8,3.3,8.2,5.6,8.2,7.8c0,0,0,0.1,0,0.1 c0,0.1-0.1,0.1-0.2,0.1c-1.3,0.5-2.7,0.3-4,0.8C3.9,8.9,3.8,9,3.6,9C3.4,9,3.3,8.9,3.2,8.7C2.9,8.4,1.7,7.1,1.4,7.3 C1.6,7,1.7,6.6,1.8,6.2L3.1,3.7z" fill="#0a0a0a" transform="translate(-5 -5)"></path>
</g></g></g><g transform="translate(0 139.438)">
<animateTransform attributeName="transform" type="translate" values="0 0;0 200" keyTimes="0;1" repeatCount="indefinite" dur="2.5s" begin="-9.492977631809818s"></animateTransform>
<g transform="translate(136.72505510680367 73.49590655811406)"><g transform="scale(0.10844172625620074)">
<path d="M3.1,3.7C3.9,2.9,5,2.5,5.8,1.8c0.3-0.3,0.6-0.6,1-0.7c0.6-0.2,1.2,0.1,1.7,0C8,3.3,8.2,5.6,8.2,7.8c0,0,0,0.1,0,0.1 c0,0.1-0.1,0.1-0.2,0.1c-1.3,0.5-2.7,0.3-4,0.8C3.9,8.9,3.8,9,3.6,9C3.4,9,3.3,8.9,3.2,8.7C2.9,8.4,1.7,7.1,1.4,7.3 C1.6,7,1.7,6.6,1.8,6.2L3.1,3.7z" fill="#0a0a0a" transform="translate(-5 -5)"></path>
</g></g></g><g transform="translate(0 139.438)">
<animateTransform attributeName="transform" type="translate" values="0 0;0 200" keyTimes="0;1" repeatCount="indefinite" dur="2.5s" begin="-9.492977631809818s"></animateTransform>
<g transform="translate(136.72505510680367 273.49590655811403)"><g transform="scale(0.10844172625620074)">
<path d="M3.1,3.7C3.9,2.9,5,2.5,5.8,1.8c0.3-0.3,0.6-0.6,1-0.7c0.6-0.2,1.2,0.1,1.7,0C8,3.3,8.2,5.6,8.2,7.8c0,0,0,0.1,0,0.1 c0,0.1-0.1,0.1-0.2,0.1c-1.3,0.5-2.7,0.3-4,0.8C3.9,8.9,3.8,9,3.6,9C3.4,9,3.3,8.9,3.2,8.7C2.9,8.4,1.7,7.1,1.4,7.3 C1.6,7,1.7,6.6,1.8,6.2L3.1,3.7z" fill="#0a0a0a" transform="translate(-5 -5)"></path>
</g></g></g><g transform="translate(0 113.28)">
<animateTransform attributeName="transform" type="translate" values="0 0;0 200" keyTimes="0;1" repeatCount="indefinite" dur="10s" begin="-0.9140213643775543s"></animateTransform>
<g transform="translate(79.93927414629941 -162.76317072628703)"><g transform="scale(0.24232681314415006)">
<path d="M5.3,1.8C4.2,1.2,2.6,1.7,1.8,2.6s-1,2.4-0.7,3.7c0.1,0.4,0.3,0.8,0.5,1.1C2,7.8,2.4,8,2.9,8.2c2.1,0.7,4.6-0.1,5.9-2 C8.9,6,9,5.8,9,5.6C9,5.4,8.9,5.2,8.8,5c-0.3-0.6-0.5-1.2-1-1.7C7.2,2.6,6.3,2.1,5.3,1.8z" fill="#28292f" transform="translate(-5 -5)"></path>
</g></g></g><g transform="translate(0 113.28)">
<animateTransform attributeName="transform" type="translate" values="0 0;0 200" keyTimes="0;1" repeatCount="indefinite" dur="10s" begin="-0.9140213643775543s"></animateTransform>
<g transform="translate(79.93927414629941 37.236829273712964)"><g transform="scale(0.24232681314415006)">
<path d="M5.3,1.8C4.2,1.2,2.6,1.7,1.8,2.6s-1,2.4-0.7,3.7c0.1,0.4,0.3,0.8,0.5,1.1C2,7.8,2.4,8,2.9,8.2c2.1,0.7,4.6-0.1,5.9-2 C8.9,6,9,5.8,9,5.6C9,5.4,8.9,5.2,8.8,5c-0.3-0.6-0.5-1.2-1-1.7C7.2,2.6,6.3,2.1,5.3,1.8z" fill="#28292f" transform="translate(-5 -5)"></path>
</g></g></g><g transform="translate(0 113.28)">
<animateTransform attributeName="transform" type="translate" values="0 0;0 200" keyTimes="0;1" repeatCount="indefinite" dur="10s" begin="-0.9140213643775543s"></animateTransform>
<g transform="translate(79.93927414629941 237.23682927371297)"><g transform="scale(0.24232681314415006)">
<path d="M5.3,1.8C4.2,1.2,2.6,1.7,1.8,2.6s-1,2.4-0.7,3.7c0.1,0.4,0.3,0.8,0.5,1.1C2,7.8,2.4,8,2.9,8.2c2.1,0.7,4.6-0.1,5.9-2 C8.9,6,9,5.8,9,5.6C9,5.4,8.9,5.2,8.8,5c-0.3-0.6-0.5-1.2-1-1.7C7.2,2.6,6.3,2.1,5.3,1.8z" fill="#28292f" transform="translate(-5 -5)"></path>
</g></g></g><g transform="translate(0 28.1801)">
<animateTransform attributeName="transform" type="translate" values="0 0;0 200" keyTimes="0;1" repeatCount="indefinite" dur="10s" begin="-6.659002663516745s"></animateTransform>
<g transform="translate(28.061058218328018 -54.510283476403515)"><g transform="scale(0.11659775711130763)">
<path d="M1,4.7C1,4,1.2,3.4,1.4,2.8C1.6,2.5,1.7,2.1,2,1.9c0.3-0.2,0.6-0.4,0.9-0.5C4.3,0.9,5.8,1,7.3,1.3c0.6,0.2,1.3,0.5,1.6,1.1 C9.1,2.9,9,3.5,8.9,4C8.7,5,8.6,6,8.6,7c0,0.1,0,0.2,0,0.3C8.5,7.4,8.3,7.5,8.2,7.6C7.6,7.8,7.1,8.1,6.5,8.3 C5.9,8.6,5.3,8.9,4.7,8.9c-0.4,0-0.8,0-1.2-0.1C2.7,8.8,1,8.7,1,8.7L1,6L1,4.7z" fill="#0a0a0a" transform="translate(-5 -5)"></path>
</g></g></g><g transform="translate(0 28.1801)">
<animateTransform attributeName="transform" type="translate" values="0 0;0 200" keyTimes="0;1" repeatCount="indefinite" dur="10s" begin="-6.659002663516745s"></animateTransform>
<g transform="translate(28.061058218328018 145.48971652359648)"><g transform="scale(0.11659775711130763)">
<path d="M1,4.7C1,4,1.2,3.4,1.4,2.8C1.6,2.5,1.7,2.1,2,1.9c0.3-0.2,0.6-0.4,0.9-0.5C4.3,0.9,5.8,1,7.3,1.3c0.6,0.2,1.3,0.5,1.6,1.1 C9.1,2.9,9,3.5,8.9,4C8.7,5,8.6,6,8.6,7c0,0.1,0,0.2,0,0.3C8.5,7.4,8.3,7.5,8.2,7.6C7.6,7.8,7.1,8.1,6.5,8.3 C5.9,8.6,5.3,8.9,4.7,8.9c-0.4,0-0.8,0-1.2-0.1C2.7,8.8,1,8.7,1,8.7L1,6L1,4.7z" fill="#0a0a0a" transform="translate(-5 -5)"></path>
</g></g></g><g transform="translate(0 28.1801)">
<animateTransform attributeName="transform" type="translate" values="0 0;0 200" keyTimes="0;1" repeatCount="indefinite" dur="10s" begin="-6.659002663516745s"></animateTransform>
<g transform="translate(28.061058218328018 345.4897165235965)"><g transform="scale(0.11659775711130763)">
<path d="M1,4.7C1,4,1.2,3.4,1.4,2.8C1.6,2.5,1.7,2.1,2,1.9c0.3-0.2,0.6-0.4,0.9-0.5C4.3,0.9,5.8,1,7.3,1.3c0.6,0.2,1.3,0.5,1.6,1.1 C9.1,2.9,9,3.5,8.9,4C8.7,5,8.6,6,8.6,7c0,0.1,0,0.2,0,0.3C8.5,7.4,8.3,7.5,8.2,7.6C7.6,7.8,7.1,8.1,6.5,8.3 C5.9,8.6,5.3,8.9,4.7,8.9c-0.4,0-0.8,0-1.2-0.1C2.7,8.8,1,8.7,1,8.7L1,6L1,4.7z" fill="#0a0a0a" transform="translate(-5 -5)"></path>
</g></g></g><g transform="translate(0 120.949)">
<animateTransform attributeName="transform" type="translate" values="0 0;0 200" keyTimes="0;1" repeatCount="indefinite" dur="10s" begin="-1.2974516658373108s"></animateTransform>
<g transform="translate(74.5326711889736 -130.93438443658692)"><g transform="scale(0.6598231665868393)">
<path d="M1,4.7C1,4,1.2,3.4,1.4,2.8C1.6,2.5,1.7,2.1,2,1.9c0.3-0.2,0.6-0.4,0.9-0.5C4.3,0.9,5.8,1,7.3,1.3c0.6,0.2,1.3,0.5,1.6,1.1 C9.1,2.9,9,3.5,8.9,4C8.7,5,8.6,6,8.6,7c0,0.1,0,0.2,0,0.3C8.5,7.4,8.3,7.5,8.2,7.6C7.6,7.8,7.1,8.1,6.5,8.3 C5.9,8.6,5.3,8.9,4.7,8.9c-0.4,0-0.8,0-1.2-0.1C2.7,8.8,1,8.7,1,8.7L1,6L1,4.7z" fill="#0a0a0a" transform="translate(-5 -5)"></path>
</g></g></g><g transform="translate(0 120.949)">
<animateTransform attributeName="transform" type="translate" values="0 0;0 200" keyTimes="0;1" repeatCount="indefinite" dur="10s" begin="-1.2974516658373108s"></animateTransform>
<g transform="translate(74.5326711889736 69.06561556341306)"><g transform="scale(0.6598231665868393)">
<path d="M1,4.7C1,4,1.2,3.4,1.4,2.8C1.6,2.5,1.7,2.1,2,1.9c0.3-0.2,0.6-0.4,0.9-0.5C4.3,0.9,5.8,1,7.3,1.3c0.6,0.2,1.3,0.5,1.6,1.1 C9.1,2.9,9,3.5,8.9,4C8.7,5,8.6,6,8.6,7c0,0.1,0,0.2,0,0.3C8.5,7.4,8.3,7.5,8.2,7.6C7.6,7.8,7.1,8.1,6.5,8.3 C5.9,8.6,5.3,8.9,4.7,8.9c-0.4,0-0.8,0-1.2-0.1C2.7,8.8,1,8.7,1,8.7L1,6L1,4.7z" fill="#0a0a0a" transform="translate(-5 -5)"></path>
</g></g></g><g transform="translate(0 120.949)">
<animateTransform attributeName="transform" type="translate" values="0 0;0 200" keyTimes="0;1" repeatCount="indefinite" dur="10s" begin="-1.2974516658373108s"></animateTransform>
<g transform="translate(74.5326711889736 269.0656155634131)"><g transform="scale(0.6598231665868393)">
<path d="M1,4.7C1,4,1.2,3.4,1.4,2.8C1.6,2.5,1.7,2.1,2,1.9c0.3-0.2,0.6-0.4,0.9-0.5C4.3,0.9,5.8,1,7.3,1.3c0.6,0.2,1.3,0.5,1.6,1.1 C9.1,2.9,9,3.5,8.9,4C8.7,5,8.6,6,8.6,7c0,0.1,0,0.2,0,0.3C8.5,7.4,8.3,7.5,8.2,7.6C7.6,7.8,7.1,8.1,6.5,8.3 C5.9,8.6,5.3,8.9,4.7,8.9c-0.4,0-0.8,0-1.2-0.1C2.7,8.8,1,8.7,1,8.7L1,6L1,4.7z" fill="#0a0a0a" transform="translate(-5 -5)"></path>
</g></g></g><g transform="translate(0 119.289)">
<animateTransform attributeName="transform" type="translate" values="0 0;0 200" keyTimes="0;1" repeatCount="indefinite" dur="3.3333333333333335s" begin="-7.238150048197357s"></animateTransform>
<g transform="translate(115.5879976745288 -93.03960148936166)"><g transform="scale(0.15537654703231446)">
<path d="M3.1,3.7C3.9,2.9,5,2.5,5.8,1.8c0.3-0.3,0.6-0.6,1-0.7c0.6-0.2,1.2,0.1,1.7,0C8,3.3,8.2,5.6,8.2,7.8c0,0,0,0.1,0,0.1 c0,0.1-0.1,0.1-0.2,0.1c-1.3,0.5-2.7,0.3-4,0.8C3.9,8.9,3.8,9,3.6,9C3.4,9,3.3,8.9,3.2,8.7C2.9,8.4,1.7,7.1,1.4,7.3 C1.6,7,1.7,6.6,1.8,6.2L3.1,3.7z" fill="#ffffff" transform="translate(-5 -5)"></path>
</g></g></g><g transform="translate(0 119.289)">
<animateTransform attributeName="transform" type="translate" values="0 0;0 200" keyTimes="0;1" repeatCount="indefinite" dur="3.3333333333333335s" begin="-7.238150048197357s"></animateTransform>
<g transform="translate(115.5879976745288 106.96039851063834)"><g transform="scale(0.15537654703231446)">
<path d="M3.1,3.7C3.9,2.9,5,2.5,5.8,1.8c0.3-0.3,0.6-0.6,1-0.7c0.6-0.2,1.2,0.1,1.7,0C8,3.3,8.2,5.6,8.2,7.8c0,0,0,0.1,0,0.1 c0,0.1-0.1,0.1-0.2,0.1c-1.3,0.5-2.7,0.3-4,0.8C3.9,8.9,3.8,9,3.6,9C3.4,9,3.3,8.9,3.2,8.7C2.9,8.4,1.7,7.1,1.4,7.3 C1.6,7,1.7,6.6,1.8,6.2L3.1,3.7z" fill="#ffffff" transform="translate(-5 -5)"></path>
</g></g></g><g transform="translate(0 119.289)">
<animateTransform attributeName="transform" type="translate" values="0 0;0 200" keyTimes="0;1" repeatCount="indefinite" dur="3.3333333333333335s" begin="-7.238150048197357s"></animateTransform>
<g transform="translate(115.5879976745288 306.96039851063836)"><g transform="scale(0.15537654703231446)">
<path d="M3.1,3.7C3.9,2.9,5,2.5,5.8,1.8c0.3-0.3,0.6-0.6,1-0.7c0.6-0.2,1.2,0.1,1.7,0C8,3.3,8.2,5.6,8.2,7.8c0,0,0,0.1,0,0.1 c0,0.1-0.1,0.1-0.2,0.1c-1.3,0.5-2.7,0.3-4,0.8C3.9,8.9,3.8,9,3.6,9C3.4,9,3.3,8.9,3.2,8.7C2.9,8.4,1.7,7.1,1.4,7.3 C1.6,7,1.7,6.6,1.8,6.2L3.1,3.7z" fill="#ffffff" transform="translate(-5 -5)"></path>
</g></g></g><g transform="translate(0 142.245)">
<animateTransform attributeName="transform" type="translate" values="0 0;0 200" keyTimes="0;1" repeatCount="indefinite" dur="3.3333333333333335s" begin="-7.620753894401525s"></animateTransform>
<g transform="translate(8.84350363145042 -16.47301114913347)"><g transform="scale(0.5243794526601129)">
<path d="M1,4.7C1,4,1.2,3.4,1.4,2.8C1.6,2.5,1.7,2.1,2,1.9c0.3-0.2,0.6-0.4,0.9-0.5C4.3,0.9,5.8,1,7.3,1.3c0.6,0.2,1.3,0.5,1.6,1.1 C9.1,2.9,9,3.5,8.9,4C8.7,5,8.6,6,8.6,7c0,0.1,0,0.2,0,0.3C8.5,7.4,8.3,7.5,8.2,7.6C7.6,7.8,7.1,8.1,6.5,8.3 C5.9,8.6,5.3,8.9,4.7,8.9c-0.4,0-0.8,0-1.2-0.1C2.7,8.8,1,8.7,1,8.7L1,6L1,4.7z" fill="#e4812f" transform="translate(-5 -5)"></path>
</g></g></g><g transform="translate(0 142.245)">
<animateTransform attributeName="transform" type="translate" values="0 0;0 200" keyTimes="0;1" repeatCount="indefinite" dur="3.3333333333333335s" begin="-7.620753894401525s"></animateTransform>
<g transform="translate(8.84350363145042 183.52698885086653)"><g transform="scale(0.5243794526601129)">
<path d="M1,4.7C1,4,1.2,3.4,1.4,2.8C1.6,2.5,1.7,2.1,2,1.9c0.3-0.2,0.6-0.4,0.9-0.5C4.3,0.9,5.8,1,7.3,1.3c0.6,0.2,1.3,0.5,1.6,1.1 C9.1,2.9,9,3.5,8.9,4C8.7,5,8.6,6,8.6,7c0,0.1,0,0.2,0,0.3C8.5,7.4,8.3,7.5,8.2,7.6C7.6,7.8,7.1,8.1,6.5,8.3 C5.9,8.6,5.3,8.9,4.7,8.9c-0.4,0-0.8,0-1.2-0.1C2.7,8.8,1,8.7,1,8.7L1,6L1,4.7z" fill="#e4812f" transform="translate(-5 -5)"></path>
</g></g></g><g transform="translate(0 142.245)">
<animateTransform attributeName="transform" type="translate" values="0 0;0 200" keyTimes="0;1" repeatCount="indefinite" dur="3.3333333333333335s" begin="-7.620753894401525s"></animateTransform>
<g transform="translate(8.84350363145042 383.52698885086653)"><g transform="scale(0.5243794526601129)">
<path d="M1,4.7C1,4,1.2,3.4,1.4,2.8C1.6,2.5,1.7,2.1,2,1.9c0.3-0.2,0.6-0.4,0.9-0.5C4.3,0.9,5.8,1,7.3,1.3c0.6,0.2,1.3,0.5,1.6,1.1 C9.1,2.9,9,3.5,8.9,4C8.7,5,8.6,6,8.6,7c0,0.1,0,0.2,0,0.3C8.5,7.4,8.3,7.5,8.2,7.6C7.6,7.8,7.1,8.1,6.5,8.3 C5.9,8.6,5.3,8.9,4.7,8.9c-0.4,0-0.8,0-1.2-0.1C2.7,8.8,1,8.7,1,8.7L1,6L1,4.7z" fill="#e4812f" transform="translate(-5 -5)"></path>
</g></g></g><g transform="translate(0 6.87037)">
<animateTransform attributeName="transform" type="translate" values="0 0;0 200" keyTimes="0;1" repeatCount="indefinite" dur="10s" begin="-5.593518504194451s"></animateTransform>
<g transform="translate(163.008256981536 -23.49089666471201)"><g transform="scale(0.5045147165952181)">
<path d="M1.8,8.9c0.6-1.3,1.2-2.6,1.8-4c0.4-0.8,0.8-1.7,1.3-2.4S6.2,1.2,7.1,1c0.4,0.8,1,1.5,1.1,2.4C8.3,4.1,8,4.9,7.6,5.6 S6.6,6.8,6,7.3C5.6,7.8,5.1,8.2,4.5,8.4C3.7,8.8,2.7,8.6,1.9,9L1.8,8.9z" fill="#f9ae5c" transform="translate(-5 -5)"></path>
</g></g></g><g transform="translate(0 6.87037)">
<animateTransform attributeName="transform" type="translate" values="0 0;0 200" keyTimes="0;1" repeatCount="indefinite" dur="10s" begin="-5.593518504194451s"></animateTransform>
<g transform="translate(163.008256981536 176.509103335288)"><g transform="scale(0.5045147165952181)">
<path d="M1.8,8.9c0.6-1.3,1.2-2.6,1.8-4c0.4-0.8,0.8-1.7,1.3-2.4S6.2,1.2,7.1,1c0.4,0.8,1,1.5,1.1,2.4C8.3,4.1,8,4.9,7.6,5.6 S6.6,6.8,6,7.3C5.6,7.8,5.1,8.2,4.5,8.4C3.7,8.8,2.7,8.6,1.9,9L1.8,8.9z" fill="#f9ae5c" transform="translate(-5 -5)"></path>
</g></g></g><g transform="translate(0 6.87037)">
<animateTransform attributeName="transform" type="translate" values="0 0;0 200" keyTimes="0;1" repeatCount="indefinite" dur="10s" begin="-5.593518504194451s"></animateTransform>
<g transform="translate(163.008256981536 376.509103335288)"><g transform="scale(0.5045147165952181)">
<path d="M1.8,8.9c0.6-1.3,1.2-2.6,1.8-4c0.4-0.8,0.8-1.7,1.3-2.4S6.2,1.2,7.1,1c0.4,0.8,1,1.5,1.1,2.4C8.3,4.1,8,4.9,7.6,5.6 S6.6,6.8,6,7.3C5.6,7.8,5.1,8.2,4.5,8.4C3.7,8.8,2.7,8.6,1.9,9L1.8,8.9z" fill="#f9ae5c" transform="translate(-5 -5)"></path>
</g></g></g><g transform="translate(0 32.5663)">
<animateTransform attributeName="transform" type="translate" values="0 0;0 200" keyTimes="0;1" repeatCount="indefinite" dur="10s" begin="-6.878317093272414s"></animateTransform>
<g transform="translate(80.83504004124225 -158.92142640237773)"><g transform="scale(0.5535391157867703)">
<path d="M3.1,3.7C3.9,2.9,5,2.5,5.8,1.8c0.3-0.3,0.6-0.6,1-0.7c0.6-0.2,1.2,0.1,1.7,0C8,3.3,8.2,5.6,8.2,7.8c0,0,0,0.1,0,0.1 c0,0.1-0.1,0.1-0.2,0.1c-1.3,0.5-2.7,0.3-4,0.8C3.9,8.9,3.8,9,3.6,9C3.4,9,3.3,8.9,3.2,8.7C2.9,8.4,1.7,7.1,1.4,7.3 C1.6,7,1.7,6.6,1.8,6.2L3.1,3.7z" fill="#28292f" transform="translate(-5 -5)"></path>
</g></g></g><g transform="translate(0 32.5663)">
<animateTransform attributeName="transform" type="translate" values="0 0;0 200" keyTimes="0;1" repeatCount="indefinite" dur="10s" begin="-6.878317093272414s"></animateTransform>
<g transform="translate(80.83504004124225 41.07857359762225)"><g transform="scale(0.5535391157867703)">
<path d="M3.1,3.7C3.9,2.9,5,2.5,5.8,1.8c0.3-0.3,0.6-0.6,1-0.7c0.6-0.2,1.2,0.1,1.7,0C8,3.3,8.2,5.6,8.2,7.8c0,0,0,0.1,0,0.1 c0,0.1-0.1,0.1-0.2,0.1c-1.3,0.5-2.7,0.3-4,0.8C3.9,8.9,3.8,9,3.6,9C3.4,9,3.3,8.9,3.2,8.7C2.9,8.4,1.7,7.1,1.4,7.3 C1.6,7,1.7,6.6,1.8,6.2L3.1,3.7z" fill="#28292f" transform="translate(-5 -5)"></path>
</g></g></g><g transform="translate(0 32.5663)">
<animateTransform attributeName="transform" type="translate" values="0 0;0 200" keyTimes="0;1" repeatCount="indefinite" dur="10s" begin="-6.878317093272414s"></animateTransform>
<g transform="translate(80.83504004124225 241.07857359762227)"><g transform="scale(0.5535391157867703)">
<path d="M3.1,3.7C3.9,2.9,5,2.5,5.8,1.8c0.3-0.3,0.6-0.6,1-0.7c0.6-0.2,1.2,0.1,1.7,0C8,3.3,8.2,5.6,8.2,7.8c0,0,0,0.1,0,0.1 c0,0.1-0.1,0.1-0.2,0.1c-1.3,0.5-2.7,0.3-4,0.8C3.9,8.9,3.8,9,3.6,9C3.4,9,3.3,8.9,3.2,8.7C2.9,8.4,1.7,7.1,1.4,7.3 C1.6,7,1.7,6.6,1.8,6.2L3.1,3.7z" fill="#28292f" transform="translate(-5 -5)"></path>
</g></g></g><g transform="translate(0 36.0977)">
<animateTransform attributeName="transform" type="translate" values="0 0;0 200" keyTimes="0;1" repeatCount="indefinite" dur="2.5s" begin="-5.701221273951132s"></animateTransform>
<g transform="translate(135.71708254725996 -20.21024386323458)"><g transform="scale(0.08930251614346289)">
<path d="M5.3,1.8C4.2,1.2,2.6,1.7,1.8,2.6s-1,2.4-0.7,3.7c0.1,0.4,0.3,0.8,0.5,1.1C2,7.8,2.4,8,2.9,8.2c2.1,0.7,4.6-0.1,5.9-2 C8.9,6,9,5.8,9,5.6C9,5.4,8.9,5.2,8.8,5c-0.3-0.6-0.5-1.2-1-1.7C7.2,2.6,6.3,2.1,5.3,1.8z" fill="#e4812f" transform="translate(-5 -5)"></path>
</g></g></g><g transform="translate(0 36.0977)">
<animateTransform attributeName="transform" type="translate" values="0 0;0 200" keyTimes="0;1" repeatCount="indefinite" dur="2.5s" begin="-5.701221273951132s"></animateTransform>
<g transform="translate(135.71708254725996 179.78975613676542)"><g transform="scale(0.08930251614346289)">
<path d="M5.3,1.8C4.2,1.2,2.6,1.7,1.8,2.6s-1,2.4-0.7,3.7c0.1,0.4,0.3,0.8,0.5,1.1C2,7.8,2.4,8,2.9,8.2c2.1,0.7,4.6-0.1,5.9-2 C8.9,6,9,5.8,9,5.6C9,5.4,8.9,5.2,8.8,5c-0.3-0.6-0.5-1.2-1-1.7C7.2,2.6,6.3,2.1,5.3,1.8z" fill="#e4812f" transform="translate(-5 -5)"></path>
</g></g></g><g transform="translate(0 36.0977)">
<animateTransform attributeName="transform" type="translate" values="0 0;0 200" keyTimes="0;1" repeatCount="indefinite" dur="2.5s" begin="-5.701221273951132s"></animateTransform>
<g transform="translate(135.71708254725996 379.7897561367654)"><g transform="scale(0.08930251614346289)">
<path d="M5.3,1.8C4.2,1.2,2.6,1.7,1.8,2.6s-1,2.4-0.7,3.7c0.1,0.4,0.3,0.8,0.5,1.1C2,7.8,2.4,8,2.9,8.2c2.1,0.7,4.6-0.1,5.9-2 C8.9,6,9,5.8,9,5.6C9,5.4,8.9,5.2,8.8,5c-0.3-0.6-0.5-1.2-1-1.7C7.2,2.6,6.3,2.1,5.3,1.8z" fill="#e4812f" transform="translate(-5 -5)"></path>
</g></g></g><g transform="translate(0 153.099)">
<animateTransform attributeName="transform" type="translate" values="0 0;0 200" keyTimes="0;1" repeatCount="indefinite" dur="5s" begin="-9.07746981846708s"></animateTransform>
<g transform="translate(5.333217164866897 -114.120075690881)"><g transform="scale(0.16036463289108438)">
<path d="M3.1,3.7C3.9,2.9,5,2.5,5.8,1.8c0.3-0.3,0.6-0.6,1-0.7c0.6-0.2,1.2,0.1,1.7,0C8,3.3,8.2,5.6,8.2,7.8c0,0,0,0.1,0,0.1 c0,0.1-0.1,0.1-0.2,0.1c-1.3,0.5-2.7,0.3-4,0.8C3.9,8.9,3.8,9,3.6,9C3.4,9,3.3,8.9,3.2,8.7C2.9,8.4,1.7,7.1,1.4,7.3 C1.6,7,1.7,6.6,1.8,6.2L3.1,3.7z" fill="#e4812f" transform="translate(-5 -5)"></path>
</g></g></g><g transform="translate(0 153.099)">
<animateTransform attributeName="transform" type="translate" values="0 0;0 200" keyTimes="0;1" repeatCount="indefinite" dur="5s" begin="-9.07746981846708s"></animateTransform>
<g transform="translate(5.333217164866897 85.879924309119)"><g transform="scale(0.16036463289108438)">
<path d="M3.1,3.7C3.9,2.9,5,2.5,5.8,1.8c0.3-0.3,0.6-0.6,1-0.7c0.6-0.2,1.2,0.1,1.7,0C8,3.3,8.2,5.6,8.2,7.8c0,0,0,0.1,0,0.1 c0,0.1-0.1,0.1-0.2,0.1c-1.3,0.5-2.7,0.3-4,0.8C3.9,8.9,3.8,9,3.6,9C3.4,9,3.3,8.9,3.2,8.7C2.9,8.4,1.7,7.1,1.4,7.3 C1.6,7,1.7,6.6,1.8,6.2L3.1,3.7z" fill="#e4812f" transform="translate(-5 -5)"></path>
</g></g></g><g transform="translate(0 153.099)">
<animateTransform attributeName="transform" type="translate" values="0 0;0 200" keyTimes="0;1" repeatCount="indefinite" dur="5s" begin="-9.07746981846708s"></animateTransform>
<g transform="translate(5.333217164866897 285.879924309119)"><g transform="scale(0.16036463289108438)">
<path d="M3.1,3.7C3.9,2.9,5,2.5,5.8,1.8c0.3-0.3,0.6-0.6,1-0.7c0.6-0.2,1.2,0.1,1.7,0C8,3.3,8.2,5.6,8.2,7.8c0,0,0,0.1,0,0.1 c0,0.1-0.1,0.1-0.2,0.1c-1.3,0.5-2.7,0.3-4,0.8C3.9,8.9,3.8,9,3.6,9C3.4,9,3.3,8.9,3.2,8.7C2.9,8.4,1.7,7.1,1.4,7.3 C1.6,7,1.7,6.6,1.8,6.2L3.1,3.7z" fill="#e4812f" transform="translate(-5 -5)"></path>
</g></g></g><g transform="translate(0 139.668)">
<animateTransform attributeName="transform" type="translate" values="0 0;0 200" keyTimes="0;1" repeatCount="indefinite" dur="3.3333333333333335s" begin="-0.9111265581757182s"></animateTransform>
<g transform="translate(82.17601794875571 -68.39355168065205)"><g transform="scale(0.44086922248355687)">
<path d="M3.1,3.7C3.9,2.9,5,2.5,5.8,1.8c0.3-0.3,0.6-0.6,1-0.7c0.6-0.2,1.2,0.1,1.7,0C8,3.3,8.2,5.6,8.2,7.8c0,0,0,0.1,0,0.1 c0,0.1-0.1,0.1-0.2,0.1c-1.3,0.5-2.7,0.3-4,0.8C3.9,8.9,3.8,9,3.6,9C3.4,9,3.3,8.9,3.2,8.7C2.9,8.4,1.7,7.1,1.4,7.3 C1.6,7,1.7,6.6,1.8,6.2L3.1,3.7z" fill="#0a0a0a" transform="translate(-5 -5)"></path>
</g></g></g><g transform="translate(0 139.668)">
<animateTransform attributeName="transform" type="translate" values="0 0;0 200" keyTimes="0;1" repeatCount="indefinite" dur="3.3333333333333335s" begin="-0.9111265581757182s"></animateTransform>
<g transform="translate(82.17601794875571 131.60644831934795)"><g transform="scale(0.44086922248355687)">
<path d="M3.1,3.7C3.9,2.9,5,2.5,5.8,1.8c0.3-0.3,0.6-0.6,1-0.7c0.6-0.2,1.2,0.1,1.7,0C8,3.3,8.2,5.6,8.2,7.8c0,0,0,0.1,0,0.1 c0,0.1-0.1,0.1-0.2,0.1c-1.3,0.5-2.7,0.3-4,0.8C3.9,8.9,3.8,9,3.6,9C3.4,9,3.3,8.9,3.2,8.7C2.9,8.4,1.7,7.1,1.4,7.3 C1.6,7,1.7,6.6,1.8,6.2L3.1,3.7z" fill="#0a0a0a" transform="translate(-5 -5)"></path>
</g></g></g><g transform="translate(0 139.668)">
<animateTransform attributeName="transform" type="translate" values="0 0;0 200" keyTimes="0;1" repeatCount="indefinite" dur="3.3333333333333335s" begin="-0.9111265581757182s"></animateTransform>
<g transform="translate(82.17601794875571 331.6064483193479)"><g transform="scale(0.44086922248355687)">
<path d="M3.1,3.7C3.9,2.9,5,2.5,5.8,1.8c0.3-0.3,0.6-0.6,1-0.7c0.6-0.2,1.2,0.1,1.7,0C8,3.3,8.2,5.6,8.2,7.8c0,0,0,0.1,0,0.1 c0,0.1-0.1,0.1-0.2,0.1c-1.3,0.5-2.7,0.3-4,0.8C3.9,8.9,3.8,9,3.6,9C3.4,9,3.3,8.9,3.2,8.7C2.9,8.4,1.7,7.1,1.4,7.3 C1.6,7,1.7,6.6,1.8,6.2L3.1,3.7z" fill="#0a0a0a" transform="translate(-5 -5)"></path>
</g></g></g><g transform="translate(0 197.249)">
<animateTransform attributeName="transform" type="translate" values="0 0;0 200" keyTimes="0;1" repeatCount="indefinite" dur="5s" begin="-0.18122516850525985s"></animateTransform>
<g transform="translate(148.01064828892783 -76.81636928135951)"><g transform="scale(0.745225912618116)">
<path d="M1,4.7C1,4,1.2,3.4,1.4,2.8C1.6,2.5,1.7,2.1,2,1.9c0.3-0.2,0.6-0.4,0.9-0.5C4.3,0.9,5.8,1,7.3,1.3c0.6,0.2,1.3,0.5,1.6,1.1 C9.1,2.9,9,3.5,8.9,4C8.7,5,8.6,6,8.6,7c0,0.1,0,0.2,0,0.3C8.5,7.4,8.3,7.5,8.2,7.6C7.6,7.8,7.1,8.1,6.5,8.3 C5.9,8.6,5.3,8.9,4.7,8.9c-0.4,0-0.8,0-1.2-0.1C2.7,8.8,1,8.7,1,8.7L1,6L1,4.7z" fill="#0a0a0a" transform="translate(-5 -5)"></path>
</g></g></g><g transform="translate(0 197.249)">
<animateTransform attributeName="transform" type="translate" values="0 0;0 200" keyTimes="0;1" repeatCount="indefinite" dur="5s" begin="-0.18122516850525985s"></animateTransform>
<g transform="translate(148.01064828892783 123.18363071864049)"><g transform="scale(0.745225912618116)">
<path d="M1,4.7C1,4,1.2,3.4,1.4,2.8C1.6,2.5,1.7,2.1,2,1.9c0.3-0.2,0.6-0.4,0.9-0.5C4.3,0.9,5.8,1,7.3,1.3c0.6,0.2,1.3,0.5,1.6,1.1 C9.1,2.9,9,3.5,8.9,4C8.7,5,8.6,6,8.6,7c0,0.1,0,0.2,0,0.3C8.5,7.4,8.3,7.5,8.2,7.6C7.6,7.8,7.1,8.1,6.5,8.3 C5.9,8.6,5.3,8.9,4.7,8.9c-0.4,0-0.8,0-1.2-0.1C2.7,8.8,1,8.7,1,8.7L1,6L1,4.7z" fill="#0a0a0a" transform="translate(-5 -5)"></path>
</g></g></g><g transform="translate(0 197.249)">
<animateTransform attributeName="transform" type="translate" values="0 0;0 200" keyTimes="0;1" repeatCount="indefinite" dur="5s" begin="-0.18122516850525985s"></animateTransform>
<g transform="translate(148.01064828892783 323.1836307186405)"><g transform="scale(0.745225912618116)">
<path d="M1,4.7C1,4,1.2,3.4,1.4,2.8C1.6,2.5,1.7,2.1,2,1.9c0.3-0.2,0.6-0.4,0.9-0.5C4.3,0.9,5.8,1,7.3,1.3c0.6,0.2,1.3,0.5,1.6,1.1 C9.1,2.9,9,3.5,8.9,4C8.7,5,8.6,6,8.6,7c0,0.1,0,0.2,0,0.3C8.5,7.4,8.3,7.5,8.2,7.6C7.6,7.8,7.1,8.1,6.5,8.3 C5.9,8.6,5.3,8.9,4.7,8.9c-0.4,0-0.8,0-1.2-0.1C2.7,8.8,1,8.7,1,8.7L1,6L1,4.7z" fill="#0a0a0a" transform="translate(-5 -5)"></path>
</g></g></g><g transform="translate(0 107.775)">
<animateTransform attributeName="transform" type="translate" values="0 0;0 200" keyTimes="0;1" repeatCount="indefinite" dur="2.5s" begin="-9.097183176708013s"></animateTransform>
<g transform="translate(162.91714210379683 -19.195818114515333)"><g transform="scale(0.6894530550491145)">
<path d="M3.1,3.7C3.9,2.9,5,2.5,5.8,1.8c0.3-0.3,0.6-0.6,1-0.7c0.6-0.2,1.2,0.1,1.7,0C8,3.3,8.2,5.6,8.2,7.8c0,0,0,0.1,0,0.1 c0,0.1-0.1,0.1-0.2,0.1c-1.3,0.5-2.7,0.3-4,0.8C3.9,8.9,3.8,9,3.6,9C3.4,9,3.3,8.9,3.2,8.7C2.9,8.4,1.7,7.1,1.4,7.3 C1.6,7,1.7,6.6,1.8,6.2L3.1,3.7z" fill="#28292f" transform="translate(-5 -5)"></path>
</g></g></g><g transform="translate(0 107.775)">
<animateTransform attributeName="transform" type="translate" values="0 0;0 200" keyTimes="0;1" repeatCount="indefinite" dur="2.5s" begin="-9.097183176708013s"></animateTransform>
<g transform="translate(162.91714210379683 180.80418188548467)"><g transform="scale(0.6894530550491145)">
<path d="M3.1,3.7C3.9,2.9,5,2.5,5.8,1.8c0.3-0.3,0.6-0.6,1-0.7c0.6-0.2,1.2,0.1,1.7,0C8,3.3,8.2,5.6,8.2,7.8c0,0,0,0.1,0,0.1 c0,0.1-0.1,0.1-0.2,0.1c-1.3,0.5-2.7,0.3-4,0.8C3.9,8.9,3.8,9,3.6,9C3.4,9,3.3,8.9,3.2,8.7C2.9,8.4,1.7,7.1,1.4,7.3 C1.6,7,1.7,6.6,1.8,6.2L3.1,3.7z" fill="#28292f" transform="translate(-5 -5)"></path>
</g></g></g><g transform="translate(0 107.775)">
<animateTransform attributeName="transform" type="translate" values="0 0;0 200" keyTimes="0;1" repeatCount="indefinite" dur="2.5s" begin="-9.097183176708013s"></animateTransform>
<g transform="translate(162.91714210379683 380.8041818854847)"><g transform="scale(0.6894530550491145)">
<path d="M3.1,3.7C3.9,2.9,5,2.5,5.8,1.8c0.3-0.3,0.6-0.6,1-0.7c0.6-0.2,1.2,0.1,1.7,0C8,3.3,8.2,5.6,8.2,7.8c0,0,0,0.1,0,0.1 c0,0.1-0.1,0.1-0.2,0.1c-1.3,0.5-2.7,0.3-4,0.8C3.9,8.9,3.8,9,3.6,9C3.4,9,3.3,8.9,3.2,8.7C2.9,8.4,1.7,7.1,1.4,7.3 C1.6,7,1.7,6.6,1.8,6.2L3.1,3.7z" fill="#28292f" transform="translate(-5 -5)"></path>
</g></g></g><g transform="translate(0 176.35)">
<animateTransform attributeName="transform" type="translate" values="0 0;0 200" keyTimes="0;1" repeatCount="indefinite" dur="3.3333333333333335s" begin="-4.855840623614139s"></animateTransform>
<g transform="translate(93.36533394757882 -53.55412411608316)"><g transform="scale(0.5717097706265498)">
<path d="M3.1,3.7C3.9,2.9,5,2.5,5.8,1.8c0.3-0.3,0.6-0.6,1-0.7c0.6-0.2,1.2,0.1,1.7,0C8,3.3,8.2,5.6,8.2,7.8c0,0,0,0.1,0,0.1 c0,0.1-0.1,0.1-0.2,0.1c-1.3,0.5-2.7,0.3-4,0.8C3.9,8.9,3.8,9,3.6,9C3.4,9,3.3,8.9,3.2,8.7C2.9,8.4,1.7,7.1,1.4,7.3 C1.6,7,1.7,6.6,1.8,6.2L3.1,3.7z" fill="#f9ae5c" transform="translate(-5 -5)"></path>
</g></g></g><g transform="translate(0 176.35)">
<animateTransform attributeName="transform" type="translate" values="0 0;0 200" keyTimes="0;1" repeatCount="indefinite" dur="3.3333333333333335s" begin="-4.855840623614139s"></animateTransform>
<g transform="translate(93.36533394757882 146.44587588391684)"><g transform="scale(0.5717097706265498)">
<path d="M3.1,3.7C3.9,2.9,5,2.5,5.8,1.8c0.3-0.3,0.6-0.6,1-0.7c0.6-0.2,1.2,0.1,1.7,0C8,3.3,8.2,5.6,8.2,7.8c0,0,0,0.1,0,0.1 c0,0.1-0.1,0.1-0.2,0.1c-1.3,0.5-2.7,0.3-4,0.8C3.9,8.9,3.8,9,3.6,9C3.4,9,3.3,8.9,3.2,8.7C2.9,8.4,1.7,7.1,1.4,7.3 C1.6,7,1.7,6.6,1.8,6.2L3.1,3.7z" fill="#f9ae5c" transform="translate(-5 -5)"></path>
</g></g></g><g transform="translate(0 176.35)">
<animateTransform attributeName="transform" type="translate" values="0 0;0 200" keyTimes="0;1" repeatCount="indefinite" dur="3.3333333333333335s" begin="-4.855840623614139s"></animateTransform>
<g transform="translate(93.36533394757882 346.44587588391687)"><g transform="scale(0.5717097706265498)">
<path d="M3.1,3.7C3.9,2.9,5,2.5,5.8,1.8c0.3-0.3,0.6-0.6,1-0.7c0.6-0.2,1.2,0.1,1.7,0C8,3.3,8.2,5.6,8.2,7.8c0,0,0,0.1,0,0.1 c0,0.1-0.1,0.1-0.2,0.1c-1.3,0.5-2.7,0.3-4,0.8C3.9,8.9,3.8,9,3.6,9C3.4,9,3.3,8.9,3.2,8.7C2.9,8.4,1.7,7.1,1.4,7.3 C1.6,7,1.7,6.6,1.8,6.2L3.1,3.7z" fill="#f9ae5c" transform="translate(-5 -5)"></path>
</g></g></g><g transform="translate(0 197.668)">
<animateTransform attributeName="transform" type="translate" values="0 0;0 200" keyTimes="0;1" repeatCount="indefinite" dur="2.5s" begin="-0.22085347040021125s"></animateTransform>
<g transform="translate(8.658892576970429 -168.31485344643866)"><g transform="scale(0.089803488346077)">
<path d="M5.3,1.8C4.2,1.2,2.6,1.7,1.8,2.6s-1,2.4-0.7,3.7c0.1,0.4,0.3,0.8,0.5,1.1C2,7.8,2.4,8,2.9,8.2c2.1,0.7,4.6-0.1,5.9-2 C8.9,6,9,5.8,9,5.6C9,5.4,8.9,5.2,8.8,5c-0.3-0.6-0.5-1.2-1-1.7C7.2,2.6,6.3,2.1,5.3,1.8z" fill="#28292f" transform="translate(-5 -5)"></path>
</g></g></g><g transform="translate(0 197.668)">
<animateTransform attributeName="transform" type="translate" values="0 0;0 200" keyTimes="0;1" repeatCount="indefinite" dur="2.5s" begin="-0.22085347040021125s"></animateTransform>
<g transform="translate(8.658892576970429 31.68514655356133)"><g transform="scale(0.089803488346077)">
<path d="M5.3,1.8C4.2,1.2,2.6,1.7,1.8,2.6s-1,2.4-0.7,3.7c0.1,0.4,0.3,0.8,0.5,1.1C2,7.8,2.4,8,2.9,8.2c2.1,0.7,4.6-0.1,5.9-2 C8.9,6,9,5.8,9,5.6C9,5.4,8.9,5.2,8.8,5c-0.3-0.6-0.5-1.2-1-1.7C7.2,2.6,6.3,2.1,5.3,1.8z" fill="#28292f" transform="translate(-5 -5)"></path>
</g></g></g><g transform="translate(0 197.668)">
<animateTransform attributeName="transform" type="translate" values="0 0;0 200" keyTimes="0;1" repeatCount="indefinite" dur="2.5s" begin="-0.22085347040021125s"></animateTransform>
<g transform="translate(8.658892576970429 231.68514655356134)"><g transform="scale(0.089803488346077)">
<path d="M5.3,1.8C4.2,1.2,2.6,1.7,1.8,2.6s-1,2.4-0.7,3.7c0.1,0.4,0.3,0.8,0.5,1.1C2,7.8,2.4,8,2.9,8.2c2.1,0.7,4.6-0.1,5.9-2 C8.9,6,9,5.8,9,5.6C9,5.4,8.9,5.2,8.8,5c-0.3-0.6-0.5-1.2-1-1.7C7.2,2.6,6.3,2.1,5.3,1.8z" fill="#28292f" transform="translate(-5 -5)"></path>
</g></g></g><g transform="translate(0 44.0155)">
<animateTransform attributeName="transform" type="translate" values="0 0;0 200" keyTimes="0;1" repeatCount="indefinite" dur="10s" begin="-7.450773387263391s"></animateTransform>
<g transform="translate(7.819870020339362 -103.02769939723912)"><g transform="scale(0.3870524611280244)">
<path d="M1.8,8.9c0.6-1.3,1.2-2.6,1.8-4c0.4-0.8,0.8-1.7,1.3-2.4S6.2,1.2,7.1,1c0.4,0.8,1,1.5,1.1,2.4C8.3,4.1,8,4.9,7.6,5.6 S6.6,6.8,6,7.3C5.6,7.8,5.1,8.2,4.5,8.4C3.7,8.8,2.7,8.6,1.9,9L1.8,8.9z" fill="#f9ae5c" transform="translate(-5 -5)"></path>
</g></g></g><g transform="translate(0 44.0155)">
<animateTransform attributeName="transform" type="translate" values="0 0;0 200" keyTimes="0;1" repeatCount="indefinite" dur="10s" begin="-7.450773387263391s"></animateTransform>
<g transform="translate(7.819870020339362 96.97230060276088)"><g transform="scale(0.3870524611280244)">
<path d="M1.8,8.9c0.6-1.3,1.2-2.6,1.8-4c0.4-0.8,0.8-1.7,1.3-2.4S6.2,1.2,7.1,1c0.4,0.8,1,1.5,1.1,2.4C8.3,4.1,8,4.9,7.6,5.6 S6.6,6.8,6,7.3C5.6,7.8,5.1,8.2,4.5,8.4C3.7,8.8,2.7,8.6,1.9,9L1.8,8.9z" fill="#f9ae5c" transform="translate(-5 -5)"></path>
</g></g></g><g transform="translate(0 44.0155)">
<animateTransform attributeName="transform" type="translate" values="0 0;0 200" keyTimes="0;1" repeatCount="indefinite" dur="10s" begin="-7.450773387263391s"></animateTransform>
<g transform="translate(7.819870020339362 296.97230060276087)"><g transform="scale(0.3870524611280244)">
<path d="M1.8,8.9c0.6-1.3,1.2-2.6,1.8-4c0.4-0.8,0.8-1.7,1.3-2.4S6.2,1.2,7.1,1c0.4,0.8,1,1.5,1.1,2.4C8.3,4.1,8,4.9,7.6,5.6 S6.6,6.8,6,7.3C5.6,7.8,5.1,8.2,4.5,8.4C3.7,8.8,2.7,8.6,1.9,9L1.8,8.9z" fill="#f9ae5c" transform="translate(-5 -5)"></path>
</g></g></g><g transform="translate(0 174.594)">
<animateTransform attributeName="transform" type="translate" values="0 0;0 200" keyTimes="0;1" repeatCount="indefinite" dur="5s" begin="-4.614859634510522s"></animateTransform>
<g transform="translate(89.96367126584065 -16.003398729987964)"><g transform="scale(0.45621303747839226)">
<path d="M1.8,8.9c0.6-1.3,1.2-2.6,1.8-4c0.4-0.8,0.8-1.7,1.3-2.4S6.2,1.2,7.1,1c0.4,0.8,1,1.5,1.1,2.4C8.3,4.1,8,4.9,7.6,5.6 S6.6,6.8,6,7.3C5.6,7.8,5.1,8.2,4.5,8.4C3.7,8.8,2.7,8.6,1.9,9L1.8,8.9z" fill="#0a0a0a" transform="translate(-5 -5)"></path>
</g></g></g><g transform="translate(0 174.594)">
<animateTransform attributeName="transform" type="translate" values="0 0;0 200" keyTimes="0;1" repeatCount="indefinite" dur="5s" begin="-4.614859634510522s"></animateTransform>
<g transform="translate(89.96367126584065 183.99660127001204)"><g transform="scale(0.45621303747839226)">
<path d="M1.8,8.9c0.6-1.3,1.2-2.6,1.8-4c0.4-0.8,0.8-1.7,1.3-2.4S6.2,1.2,7.1,1c0.4,0.8,1,1.5,1.1,2.4C8.3,4.1,8,4.9,7.6,5.6 S6.6,6.8,6,7.3C5.6,7.8,5.1,8.2,4.5,8.4C3.7,8.8,2.7,8.6,1.9,9L1.8,8.9z" fill="#0a0a0a" transform="translate(-5 -5)"></path>
</g></g></g><g transform="translate(0 174.594)">
<animateTransform attributeName="transform" type="translate" values="0 0;0 200" keyTimes="0;1" repeatCount="indefinite" dur="5s" begin="-4.614859634510522s"></animateTransform>
<g transform="translate(89.96367126584065 383.99660127001204)"><g transform="scale(0.45621303747839226)">
<path d="M1.8,8.9c0.6-1.3,1.2-2.6,1.8-4c0.4-0.8,0.8-1.7,1.3-2.4S6.2,1.2,7.1,1c0.4,0.8,1,1.5,1.1,2.4C8.3,4.1,8,4.9,7.6,5.6 S6.6,6.8,6,7.3C5.6,7.8,5.1,8.2,4.5,8.4C3.7,8.8,2.7,8.6,1.9,9L1.8,8.9z" fill="#0a0a0a" transform="translate(-5 -5)"></path>
</g></g></g><g transform="translate(0 90.6158)">
<animateTransform attributeName="transform" type="translate" values="0 0;0 200" keyTimes="0;1" repeatCount="indefinite" dur="2.5s" begin="-3.8826980269800297s"></animateTransform>
<g transform="translate(121.00343649712484 -112.88307596427316)"><g transform="scale(0.46452177244903636)">
<path d="M3.1,3.7C3.9,2.9,5,2.5,5.8,1.8c0.3-0.3,0.6-0.6,1-0.7c0.6-0.2,1.2,0.1,1.7,0C8,3.3,8.2,5.6,8.2,7.8c0,0,0,0.1,0,0.1 c0,0.1-0.1,0.1-0.2,0.1c-1.3,0.5-2.7,0.3-4,0.8C3.9,8.9,3.8,9,3.6,9C3.4,9,3.3,8.9,3.2,8.7C2.9,8.4,1.7,7.1,1.4,7.3 C1.6,7,1.7,6.6,1.8,6.2L3.1,3.7z" fill="#ffffff" transform="translate(-5 -5)"></path>
</g></g></g><g transform="translate(0 90.6158)">
<animateTransform attributeName="transform" type="translate" values="0 0;0 200" keyTimes="0;1" repeatCount="indefinite" dur="2.5s" begin="-3.8826980269800297s"></animateTransform>
<g transform="translate(121.00343649712484 87.11692403572684)"><g transform="scale(0.46452177244903636)">
<path d="M3.1,3.7C3.9,2.9,5,2.5,5.8,1.8c0.3-0.3,0.6-0.6,1-0.7c0.6-0.2,1.2,0.1,1.7,0C8,3.3,8.2,5.6,8.2,7.8c0,0,0,0.1,0,0.1 c0,0.1-0.1,0.1-0.2,0.1c-1.3,0.5-2.7,0.3-4,0.8C3.9,8.9,3.8,9,3.6,9C3.4,9,3.3,8.9,3.2,8.7C2.9,8.4,1.7,7.1,1.4,7.3 C1.6,7,1.7,6.6,1.8,6.2L3.1,3.7z" fill="#ffffff" transform="translate(-5 -5)"></path>
</g></g></g><g transform="translate(0 90.6158)">
<animateTransform attributeName="transform" type="translate" values="0 0;0 200" keyTimes="0;1" repeatCount="indefinite" dur="2.5s" begin="-3.8826980269800297s"></animateTransform>
<g transform="translate(121.00343649712484 287.1169240357268)"><g transform="scale(0.46452177244903636)">
<path d="M3.1,3.7C3.9,2.9,5,2.5,5.8,1.8c0.3-0.3,0.6-0.6,1-0.7c0.6-0.2,1.2,0.1,1.7,0C8,3.3,8.2,5.6,8.2,7.8c0,0,0,0.1,0,0.1 c0,0.1-0.1,0.1-0.2,0.1c-1.3,0.5-2.7,0.3-4,0.8C3.9,8.9,3.8,9,3.6,9C3.4,9,3.3,8.9,3.2,8.7C2.9,8.4,1.7,7.1,1.4,7.3 C1.6,7,1.7,6.6,1.8,6.2L3.1,3.7z" fill="#ffffff" transform="translate(-5 -5)"></path>
</g></g></g><g transform="translate(0 169.724)">
<animateTransform attributeName="transform" type="translate" values="0 0;0 200" keyTimes="0;1" repeatCount="indefinite" dur="3.3333333333333335s" begin="-4.745395432058565s"></animateTransform>
<g transform="translate(176.72517398902886 -121.04492568273767)"><g transform="scale(0.6175526604761116)">
<path d="M1,4.7C1,4,1.2,3.4,1.4,2.8C1.6,2.5,1.7,2.1,2,1.9c0.3-0.2,0.6-0.4,0.9-0.5C4.3,0.9,5.8,1,7.3,1.3c0.6,0.2,1.3,0.5,1.6,1.1 C9.1,2.9,9,3.5,8.9,4C8.7,5,8.6,6,8.6,7c0,0.1,0,0.2,0,0.3C8.5,7.4,8.3,7.5,8.2,7.6C7.6,7.8,7.1,8.1,6.5,8.3 C5.9,8.6,5.3,8.9,4.7,8.9c-0.4,0-0.8,0-1.2-0.1C2.7,8.8,1,8.7,1,8.7L1,6L1,4.7z" fill="#f9ae5c" transform="translate(-5 -5)"></path>
</g></g></g><g transform="translate(0 169.724)">
<animateTransform attributeName="transform" type="translate" values="0 0;0 200" keyTimes="0;1" repeatCount="indefinite" dur="3.3333333333333335s" begin="-4.745395432058565s"></animateTransform>
<g transform="translate(176.72517398902886 78.95507431726233)"><g transform="scale(0.6175526604761116)">
<path d="M1,4.7C1,4,1.2,3.4,1.4,2.8C1.6,2.5,1.7,2.1,2,1.9c0.3-0.2,0.6-0.4,0.9-0.5C4.3,0.9,5.8,1,7.3,1.3c0.6,0.2,1.3,0.5,1.6,1.1 C9.1,2.9,9,3.5,8.9,4C8.7,5,8.6,6,8.6,7c0,0.1,0,0.2,0,0.3C8.5,7.4,8.3,7.5,8.2,7.6C7.6,7.8,7.1,8.1,6.5,8.3 C5.9,8.6,5.3,8.9,4.7,8.9c-0.4,0-0.8,0-1.2-0.1C2.7,8.8,1,8.7,1,8.7L1,6L1,4.7z" fill="#f9ae5c" transform="translate(-5 -5)"></path>
</g></g></g><g transform="translate(0 169.724)">
<animateTransform attributeName="transform" type="translate" values="0 0;0 200" keyTimes="0;1" repeatCount="indefinite" dur="3.3333333333333335s" begin="-4.745395432058565s"></animateTransform>
<g transform="translate(176.72517398902886 278.9550743172623)"><g transform="scale(0.6175526604761116)">
<path d="M1,4.7C1,4,1.2,3.4,1.4,2.8C1.6,2.5,1.7,2.1,2,1.9c0.3-0.2,0.6-0.4,0.9-0.5C4.3,0.9,5.8,1,7.3,1.3c0.6,0.2,1.3,0.5,1.6,1.1 C9.1,2.9,9,3.5,8.9,4C8.7,5,8.6,6,8.6,7c0,0.1,0,0.2,0,0.3C8.5,7.4,8.3,7.5,8.2,7.6C7.6,7.8,7.1,8.1,6.5,8.3 C5.9,8.6,5.3,8.9,4.7,8.9c-0.4,0-0.8,0-1.2-0.1C2.7,8.8,1,8.7,1,8.7L1,6L1,4.7z" fill="#f9ae5c" transform="translate(-5 -5)"></path>
</g></g></g><g transform="translate(0 53.5665)">
<animateTransform attributeName="transform" type="translate" values="0 0;0 200" keyTimes="0;1" repeatCount="indefinite" dur="2.5s" begin="-0.9195808122438411s"></animateTransform>
<g transform="translate(86.79859198557956 -158.20932550191287)"><g transform="scale(0.5108877814948644)">
<path d="M3.1,3.7C3.9,2.9,5,2.5,5.8,1.8c0.3-0.3,0.6-0.6,1-0.7c0.6-0.2,1.2,0.1,1.7,0C8,3.3,8.2,5.6,8.2,7.8c0,0,0,0.1,0,0.1 c0,0.1-0.1,0.1-0.2,0.1c-1.3,0.5-2.7,0.3-4,0.8C3.9,8.9,3.8,9,3.6,9C3.4,9,3.3,8.9,3.2,8.7C2.9,8.4,1.7,7.1,1.4,7.3 C1.6,7,1.7,6.6,1.8,6.2L3.1,3.7z" fill="#ffffff" transform="translate(-5 -5)"></path>
</g></g></g><g transform="translate(0 53.5665)">
<animateTransform attributeName="transform" type="translate" values="0 0;0 200" keyTimes="0;1" repeatCount="indefinite" dur="2.5s" begin="-0.9195808122438411s"></animateTransform>
<g transform="translate(86.79859198557956 41.790674498087135)"><g transform="scale(0.5108877814948644)">
<path d="M3.1,3.7C3.9,2.9,5,2.5,5.8,1.8c0.3-0.3,0.6-0.6,1-0.7c0.6-0.2,1.2,0.1,1.7,0C8,3.3,8.2,5.6,8.2,7.8c0,0,0,0.1,0,0.1 c0,0.1-0.1,0.1-0.2,0.1c-1.3,0.5-2.7,0.3-4,0.8C3.9,8.9,3.8,9,3.6,9C3.4,9,3.3,8.9,3.2,8.7C2.9,8.4,1.7,7.1,1.4,7.3 C1.6,7,1.7,6.6,1.8,6.2L3.1,3.7z" fill="#ffffff" transform="translate(-5 -5)"></path>
</g></g></g><g transform="translate(0 53.5665)">
<animateTransform attributeName="transform" type="translate" values="0 0;0 200" keyTimes="0;1" repeatCount="indefinite" dur="2.5s" begin="-0.9195808122438411s"></animateTransform>
<g transform="translate(86.79859198557956 241.79067449808713)"><g transform="scale(0.5108877814948644)">
<path d="M3.1,3.7C3.9,2.9,5,2.5,5.8,1.8c0.3-0.3,0.6-0.6,1-0.7c0.6-0.2,1.2,0.1,1.7,0C8,3.3,8.2,5.6,8.2,7.8c0,0,0,0.1,0,0.1 c0,0.1-0.1,0.1-0.2,0.1c-1.3,0.5-2.7,0.3-4,0.8C3.9,8.9,3.8,9,3.6,9C3.4,9,3.3,8.9,3.2,8.7C2.9,8.4,1.7,7.1,1.4,7.3 C1.6,7,1.7,6.6,1.8,6.2L3.1,3.7z" fill="#ffffff" transform="translate(-5 -5)"></path>
</g></g></g><g transform="translate(0 88.7871)">
<animateTransform attributeName="transform" type="translate" values="0 0;0 200" keyTimes="0;1" repeatCount="indefinite" dur="5s" begin="-2.4696780806865584s"></animateTransform>
<g transform="translate(104.97912341201838 -84.3124621912775)"><g transform="scale(0.5480321845602553)">
<path d="M1,4.7C1,4,1.2,3.4,1.4,2.8C1.6,2.5,1.7,2.1,2,1.9c0.3-0.2,0.6-0.4,0.9-0.5C4.3,0.9,5.8,1,7.3,1.3c0.6,0.2,1.3,0.5,1.6,1.1 C9.1,2.9,9,3.5,8.9,4C8.7,5,8.6,6,8.6,7c0,0.1,0,0.2,0,0.3C8.5,7.4,8.3,7.5,8.2,7.6C7.6,7.8,7.1,8.1,6.5,8.3 C5.9,8.6,5.3,8.9,4.7,8.9c-0.4,0-0.8,0-1.2-0.1C2.7,8.8,1,8.7,1,8.7L1,6L1,4.7z" fill="#ffffff" transform="translate(-5 -5)"></path>
</g></g></g><g transform="translate(0 88.7871)">
<animateTransform attributeName="transform" type="translate" values="0 0;0 200" keyTimes="0;1" repeatCount="indefinite" dur="5s" begin="-2.4696780806865584s"></animateTransform>
<g transform="translate(104.97912341201838 115.6875378087225)"><g transform="scale(0.5480321845602553)">
<path d="M1,4.7C1,4,1.2,3.4,1.4,2.8C1.6,2.5,1.7,2.1,2,1.9c0.3-0.2,0.6-0.4,0.9-0.5C4.3,0.9,5.8,1,7.3,1.3c0.6,0.2,1.3,0.5,1.6,1.1 C9.1,2.9,9,3.5,8.9,4C8.7,5,8.6,6,8.6,7c0,0.1,0,0.2,0,0.3C8.5,7.4,8.3,7.5,8.2,7.6C7.6,7.8,7.1,8.1,6.5,8.3 C5.9,8.6,5.3,8.9,4.7,8.9c-0.4,0-0.8,0-1.2-0.1C2.7,8.8,1,8.7,1,8.7L1,6L1,4.7z" fill="#ffffff" transform="translate(-5 -5)"></path>
</g></g></g><g transform="translate(0 88.7871)">
<animateTransform attributeName="transform" type="translate" values="0 0;0 200" keyTimes="0;1" repeatCount="indefinite" dur="5s" begin="-2.4696780806865584s"></animateTransform>
<g transform="translate(104.97912341201838 315.6875378087225)"><g transform="scale(0.5480321845602553)">
<path d="M1,4.7C1,4,1.2,3.4,1.4,2.8C1.6,2.5,1.7,2.1,2,1.9c0.3-0.2,0.6-0.4,0.9-0.5C4.3,0.9,5.8,1,7.3,1.3c0.6,0.2,1.3,0.5,1.6,1.1 C9.1,2.9,9,3.5,8.9,4C8.7,5,8.6,6,8.6,7c0,0.1,0,0.2,0,0.3C8.5,7.4,8.3,7.5,8.2,7.6C7.6,7.8,7.1,8.1,6.5,8.3 C5.9,8.6,5.3,8.9,4.7,8.9c-0.4,0-0.8,0-1.2-0.1C2.7,8.8,1,8.7,1,8.7L1,6L1,4.7z" fill="#ffffff" transform="translate(-5 -5)"></path>
</g></g></g><g transform="translate(0 5.42288)">
<animateTransform attributeName="transform" type="translate" values="0 0;0 200" keyTimes="0;1" repeatCount="indefinite" dur="10s" begin="-5.521143889103804s"></animateTransform>
<g transform="translate(131.84466241955596 -136.07127778964292)"><g transform="scale(0.16695695048630918)">
<path d="M1.8,8.9c0.6-1.3,1.2-2.6,1.8-4c0.4-0.8,0.8-1.7,1.3-2.4S6.2,1.2,7.1,1c0.4,0.8,1,1.5,1.1,2.4C8.3,4.1,8,4.9,7.6,5.6 S6.6,6.8,6,7.3C5.6,7.8,5.1,8.2,4.5,8.4C3.7,8.8,2.7,8.6,1.9,9L1.8,8.9z" fill="#f9ae5c" transform="translate(-5 -5)"></path>
</g></g></g><g transform="translate(0 5.42288)">
<animateTransform attributeName="transform" type="translate" values="0 0;0 200" keyTimes="0;1" repeatCount="indefinite" dur="10s" begin="-5.521143889103804s"></animateTransform>
<g transform="translate(131.84466241955596 63.92872221035708)"><g transform="scale(0.16695695048630918)">
<path d="M1.8,8.9c0.6-1.3,1.2-2.6,1.8-4c0.4-0.8,0.8-1.7,1.3-2.4S6.2,1.2,7.1,1c0.4,0.8,1,1.5,1.1,2.4C8.3,4.1,8,4.9,7.6,5.6 S6.6,6.8,6,7.3C5.6,7.8,5.1,8.2,4.5,8.4C3.7,8.8,2.7,8.6,1.9,9L1.8,8.9z" fill="#f9ae5c" transform="translate(-5 -5)"></path>
</g></g></g><g transform="translate(0 5.42288)">
<animateTransform attributeName="transform" type="translate" values="0 0;0 200" keyTimes="0;1" repeatCount="indefinite" dur="10s" begin="-5.521143889103804s"></animateTransform>
<g transform="translate(131.84466241955596 263.9287222103571)"><g transform="scale(0.16695695048630918)">
<path d="M1.8,8.9c0.6-1.3,1.2-2.6,1.8-4c0.4-0.8,0.8-1.7,1.3-2.4S6.2,1.2,7.1,1c0.4,0.8,1,1.5,1.1,2.4C8.3,4.1,8,4.9,7.6,5.6 S6.6,6.8,6,7.3C5.6,7.8,5.1,8.2,4.5,8.4C3.7,8.8,2.7,8.6,1.9,9L1.8,8.9z" fill="#f9ae5c" transform="translate(-5 -5)"></path>
</g></g></g><g transform="translate(0 0.217199)">
<animateTransform attributeName="transform" type="translate" values="0 0;0 200" keyTimes="0;1" repeatCount="indefinite" dur="2.5s" begin="-0.2527149920416274s"></animateTransform>
<g transform="translate(92.51807313741861 -16.548064079893607)"><g transform="scale(0.09209929073329537)">
<path d="M5.3,1.8C4.2,1.2,2.6,1.7,1.8,2.6s-1,2.4-0.7,3.7c0.1,0.4,0.3,0.8,0.5,1.1C2,7.8,2.4,8,2.9,8.2c2.1,0.7,4.6-0.1,5.9-2 C8.9,6,9,5.8,9,5.6C9,5.4,8.9,5.2,8.8,5c-0.3-0.6-0.5-1.2-1-1.7C7.2,2.6,6.3,2.1,5.3,1.8z" fill="#ffffff" transform="translate(-5 -5)"></path>
</g></g></g><g transform="translate(0 0.217199)">
<animateTransform attributeName="transform" type="translate" values="0 0;0 200" keyTimes="0;1" repeatCount="indefinite" dur="2.5s" begin="-0.2527149920416274s"></animateTransform>
<g transform="translate(92.51807313741861 183.4519359201064)"><g transform="scale(0.09209929073329537)">
<path d="M5.3,1.8C4.2,1.2,2.6,1.7,1.8,2.6s-1,2.4-0.7,3.7c0.1,0.4,0.3,0.8,0.5,1.1C2,7.8,2.4,8,2.9,8.2c2.1,0.7,4.6-0.1,5.9-2 C8.9,6,9,5.8,9,5.6C9,5.4,8.9,5.2,8.8,5c-0.3-0.6-0.5-1.2-1-1.7C7.2,2.6,6.3,2.1,5.3,1.8z" fill="#ffffff" transform="translate(-5 -5)"></path>
</g></g></g><g transform="translate(0 0.217199)">
<animateTransform attributeName="transform" type="translate" values="0 0;0 200" keyTimes="0;1" repeatCount="indefinite" dur="2.5s" begin="-0.2527149920416274s"></animateTransform>
<g transform="translate(92.51807313741861 383.4519359201064)"><g transform="scale(0.09209929073329537)">
<path d="M5.3,1.8C4.2,1.2,2.6,1.7,1.8,2.6s-1,2.4-0.7,3.7c0.1,0.4,0.3,0.8,0.5,1.1C2,7.8,2.4,8,2.9,8.2c2.1,0.7,4.6-0.1,5.9-2 C8.9,6,9,5.8,9,5.6C9,5.4,8.9,5.2,8.8,5c-0.3-0.6-0.5-1.2-1-1.7C7.2,2.6,6.3,2.1,5.3,1.8z" fill="#ffffff" transform="translate(-5 -5)"></path>
</g></g></g><g transform="translate(0 182.29)">
<animateTransform attributeName="transform" type="translate" values="0 0;0 200" keyTimes="0;1" repeatCount="indefinite" dur="3.3333333333333335s" begin="-8.288161873621178s"></animateTransform>
<g transform="translate(26.033660608960552 -58.75912385249708)"><g transform="scale(0.3979666329472824)">
<path d="M1.8,8.9c0.6-1.3,1.2-2.6,1.8-4c0.4-0.8,0.8-1.7,1.3-2.4S6.2,1.2,7.1,1c0.4,0.8,1,1.5,1.1,2.4C8.3,4.1,8,4.9,7.6,5.6 S6.6,6.8,6,7.3C5.6,7.8,5.1,8.2,4.5,8.4C3.7,8.8,2.7,8.6,1.9,9L1.8,8.9z" fill="#e4812f" transform="translate(-5 -5)"></path>
</g></g></g><g transform="translate(0 182.29)">
<animateTransform attributeName="transform" type="translate" values="0 0;0 200" keyTimes="0;1" repeatCount="indefinite" dur="3.3333333333333335s" begin="-8.288161873621178s"></animateTransform>
<g transform="translate(26.033660608960552 141.24087614750292)"><g transform="scale(0.3979666329472824)">
<path d="M1.8,8.9c0.6-1.3,1.2-2.6,1.8-4c0.4-0.8,0.8-1.7,1.3-2.4S6.2,1.2,7.1,1c0.4,0.8,1,1.5,1.1,2.4C8.3,4.1,8,4.9,7.6,5.6 S6.6,6.8,6,7.3C5.6,7.8,5.1,8.2,4.5,8.4C3.7,8.8,2.7,8.6,1.9,9L1.8,8.9z" fill="#e4812f" transform="translate(-5 -5)"></path>
</g></g></g><g transform="translate(0 182.29)">
<animateTransform attributeName="transform" type="translate" values="0 0;0 200" keyTimes="0;1" repeatCount="indefinite" dur="3.3333333333333335s" begin="-8.288161873621178s"></animateTransform>
<g transform="translate(26.033660608960552 341.24087614750295)"><g transform="scale(0.3979666329472824)">
<path d="M1.8,8.9c0.6-1.3,1.2-2.6,1.8-4c0.4-0.8,0.8-1.7,1.3-2.4S6.2,1.2,7.1,1c0.4,0.8,1,1.5,1.1,2.4C8.3,4.1,8,4.9,7.6,5.6 S6.6,6.8,6,7.3C5.6,7.8,5.1,8.2,4.5,8.4C3.7,8.8,2.7,8.6,1.9,9L1.8,8.9z" fill="#e4812f" transform="translate(-5 -5)"></path>
</g></g></g><g transform="translate(0 30.4817)">
<animateTransform attributeName="transform" type="translate" values="0 0;0 200" keyTimes="0;1" repeatCount="indefinite" dur="10s" begin="-6.774086838243231s"></animateTransform>
<g transform="translate(30.001842606453405 -30.083219222099018)"><g transform="scale(0.683943760200678)">
<path d="M3.1,3.7C3.9,2.9,5,2.5,5.8,1.8c0.3-0.3,0.6-0.6,1-0.7c0.6-0.2,1.2,0.1,1.7,0C8,3.3,8.2,5.6,8.2,7.8c0,0,0,0.1,0,0.1 c0,0.1-0.1,0.1-0.2,0.1c-1.3,0.5-2.7,0.3-4,0.8C3.9,8.9,3.8,9,3.6,9C3.4,9,3.3,8.9,3.2,8.7C2.9,8.4,1.7,7.1,1.4,7.3 C1.6,7,1.7,6.6,1.8,6.2L3.1,3.7z" fill="#f9ae5c" transform="translate(-5 -5)"></path>
</g></g></g><g transform="translate(0 30.4817)">
<animateTransform attributeName="transform" type="translate" values="0 0;0 200" keyTimes="0;1" repeatCount="indefinite" dur="10s" begin="-6.774086838243231s"></animateTransform>
<g transform="translate(30.001842606453405 169.91678077790098)"><g transform="scale(0.683943760200678)">
<path d="M3.1,3.7C3.9,2.9,5,2.5,5.8,1.8c0.3-0.3,0.6-0.6,1-0.7c0.6-0.2,1.2,0.1,1.7,0C8,3.3,8.2,5.6,8.2,7.8c0,0,0,0.1,0,0.1 c0,0.1-0.1,0.1-0.2,0.1c-1.3,0.5-2.7,0.3-4,0.8C3.9,8.9,3.8,9,3.6,9C3.4,9,3.3,8.9,3.2,8.7C2.9,8.4,1.7,7.1,1.4,7.3 C1.6,7,1.7,6.6,1.8,6.2L3.1,3.7z" fill="#f9ae5c" transform="translate(-5 -5)"></path>
</g></g></g><g transform="translate(0 30.4817)">
<animateTransform attributeName="transform" type="translate" values="0 0;0 200" keyTimes="0;1" repeatCount="indefinite" dur="10s" begin="-6.774086838243231s"></animateTransform>
<g transform="translate(30.001842606453405 369.91678077790095)"><g transform="scale(0.683943760200678)">
<path d="M3.1,3.7C3.9,2.9,5,2.5,5.8,1.8c0.3-0.3,0.6-0.6,1-0.7c0.6-0.2,1.2,0.1,1.7,0C8,3.3,8.2,5.6,8.2,7.8c0,0,0,0.1,0,0.1 c0,0.1-0.1,0.1-0.2,0.1c-1.3,0.5-2.7,0.3-4,0.8C3.9,8.9,3.8,9,3.6,9C3.4,9,3.3,8.9,3.2,8.7C2.9,8.4,1.7,7.1,1.4,7.3 C1.6,7,1.7,6.6,1.8,6.2L3.1,3.7z" fill="#f9ae5c" transform="translate(-5 -5)"></path>
</g></g></g><g transform="translate(0 180.5)">
<animateTransform attributeName="transform" type="translate" values="0 0;0 200" keyTimes="0;1" repeatCount="indefinite" dur="10s" begin="-4.275021995902439s"></animateTransform>
<g transform="translate(196.16733065659483 -141.88431688749375)"><g transform="scale(0.21298245190024062)">
<path d="M1,4.7C1,4,1.2,3.4,1.4,2.8C1.6,2.5,1.7,2.1,2,1.9c0.3-0.2,0.6-0.4,0.9-0.5C4.3,0.9,5.8,1,7.3,1.3c0.6,0.2,1.3,0.5,1.6,1.1 C9.1,2.9,9,3.5,8.9,4C8.7,5,8.6,6,8.6,7c0,0.1,0,0.2,0,0.3C8.5,7.4,8.3,7.5,8.2,7.6C7.6,7.8,7.1,8.1,6.5,8.3 C5.9,8.6,5.3,8.9,4.7,8.9c-0.4,0-0.8,0-1.2-0.1C2.7,8.8,1,8.7,1,8.7L1,6L1,4.7z" fill="#f9ae5c" transform="translate(-5 -5)"></path>
</g></g></g><g transform="translate(0 180.5)">
<animateTransform attributeName="transform" type="translate" values="0 0;0 200" keyTimes="0;1" repeatCount="indefinite" dur="10s" begin="-4.275021995902439s"></animateTransform>
<g transform="translate(196.16733065659483 58.11568311250623)"><g transform="scale(0.21298245190024062)">
<path d="M1,4.7C1,4,1.2,3.4,1.4,2.8C1.6,2.5,1.7,2.1,2,1.9c0.3-0.2,0.6-0.4,0.9-0.5C4.3,0.9,5.8,1,7.3,1.3c0.6,0.2,1.3,0.5,1.6,1.1 C9.1,2.9,9,3.5,8.9,4C8.7,5,8.6,6,8.6,7c0,0.1,0,0.2,0,0.3C8.5,7.4,8.3,7.5,8.2,7.6C7.6,7.8,7.1,8.1,6.5,8.3 C5.9,8.6,5.3,8.9,4.7,8.9c-0.4,0-0.8,0-1.2-0.1C2.7,8.8,1,8.7,1,8.7L1,6L1,4.7z" fill="#f9ae5c" transform="translate(-5 -5)"></path>
</g></g></g><g transform="translate(0 180.5)">
<animateTransform attributeName="transform" type="translate" values="0 0;0 200" keyTimes="0;1" repeatCount="indefinite" dur="10s" begin="-4.275021995902439s"></animateTransform>
<g transform="translate(196.16733065659483 258.11568311250625)"><g transform="scale(0.21298245190024062)">
<path d="M1,4.7C1,4,1.2,3.4,1.4,2.8C1.6,2.5,1.7,2.1,2,1.9c0.3-0.2,0.6-0.4,0.9-0.5C4.3,0.9,5.8,1,7.3,1.3c0.6,0.2,1.3,0.5,1.6,1.1 C9.1,2.9,9,3.5,8.9,4C8.7,5,8.6,6,8.6,7c0,0.1,0,0.2,0,0.3C8.5,7.4,8.3,7.5,8.2,7.6C7.6,7.8,7.1,8.1,6.5,8.3 C5.9,8.6,5.3,8.9,4.7,8.9c-0.4,0-0.8,0-1.2-0.1C2.7,8.8,1,8.7,1,8.7L1,6L1,4.7z" fill="#f9ae5c" transform="translate(-5 -5)"></path>
</g></g></g><g transform="translate(0 196.129)">
<animateTransform attributeName="transform" type="translate" values="0 0;0 200" keyTimes="0;1" repeatCount="indefinite" dur="10s" begin="-5.056439590988813s"></animateTransform>
<g transform="translate(41.4621644282011 -95.34599963418819)"><g transform="scale(0.6073538424542356)">
<path d="M1,4.7C1,4,1.2,3.4,1.4,2.8C1.6,2.5,1.7,2.1,2,1.9c0.3-0.2,0.6-0.4,0.9-0.5C4.3,0.9,5.8,1,7.3,1.3c0.6,0.2,1.3,0.5,1.6,1.1 C9.1,2.9,9,3.5,8.9,4C8.7,5,8.6,6,8.6,7c0,0.1,0,0.2,0,0.3C8.5,7.4,8.3,7.5,8.2,7.6C7.6,7.8,7.1,8.1,6.5,8.3 C5.9,8.6,5.3,8.9,4.7,8.9c-0.4,0-0.8,0-1.2-0.1C2.7,8.8,1,8.7,1,8.7L1,6L1,4.7z" fill="#0a0a0a" transform="translate(-5 -5)"></path>
</g></g></g><g transform="translate(0 196.129)">
<animateTransform attributeName="transform" type="translate" values="0 0;0 200" keyTimes="0;1" repeatCount="indefinite" dur="10s" begin="-5.056439590988813s"></animateTransform>
<g transform="translate(41.4621644282011 104.65400036581181)"><g transform="scale(0.6073538424542356)">
<path d="M1,4.7C1,4,1.2,3.4,1.4,2.8C1.6,2.5,1.7,2.1,2,1.9c0.3-0.2,0.6-0.4,0.9-0.5C4.3,0.9,5.8,1,7.3,1.3c0.6,0.2,1.3,0.5,1.6,1.1 C9.1,2.9,9,3.5,8.9,4C8.7,5,8.6,6,8.6,7c0,0.1,0,0.2,0,0.3C8.5,7.4,8.3,7.5,8.2,7.6C7.6,7.8,7.1,8.1,6.5,8.3 C5.9,8.6,5.3,8.9,4.7,8.9c-0.4,0-0.8,0-1.2-0.1C2.7,8.8,1,8.7,1,8.7L1,6L1,4.7z" fill="#0a0a0a" transform="translate(-5 -5)"></path>
</g></g></g><g transform="translate(0 196.129)">
<animateTransform attributeName="transform" type="translate" values="0 0;0 200" keyTimes="0;1" repeatCount="indefinite" dur="10s" begin="-5.056439590988813s"></animateTransform>
<g transform="translate(41.4621644282011 304.65400036581184)"><g transform="scale(0.6073538424542356)">
<path d="M1,4.7C1,4,1.2,3.4,1.4,2.8C1.6,2.5,1.7,2.1,2,1.9c0.3-0.2,0.6-0.4,0.9-0.5C4.3,0.9,5.8,1,7.3,1.3c0.6,0.2,1.3,0.5,1.6,1.1 C9.1,2.9,9,3.5,8.9,4C8.7,5,8.6,6,8.6,7c0,0.1,0,0.2,0,0.3C8.5,7.4,8.3,7.5,8.2,7.6C7.6,7.8,7.1,8.1,6.5,8.3 C5.9,8.6,5.3,8.9,4.7,8.9c-0.4,0-0.8,0-1.2-0.1C2.7,8.8,1,8.7,1,8.7L1,6L1,4.7z" fill="#0a0a0a" transform="translate(-5 -5)"></path>
</g></g></g><g transform="translate(0 196.197)">
<animateTransform attributeName="transform" type="translate" values="0 0;0 200" keyTimes="0;1" repeatCount="indefinite" dur="5s" begin="-5.154932453375932s"></animateTransform>
<g transform="translate(142.75442258366544 -80.40375343307107)"><g transform="scale(0.2755639875677976)">
<path d="M3.1,3.7C3.9,2.9,5,2.5,5.8,1.8c0.3-0.3,0.6-0.6,1-0.7c0.6-0.2,1.2,0.1,1.7,0C8,3.3,8.2,5.6,8.2,7.8c0,0,0,0.1,0,0.1 c0,0.1-0.1,0.1-0.2,0.1c-1.3,0.5-2.7,0.3-4,0.8C3.9,8.9,3.8,9,3.6,9C3.4,9,3.3,8.9,3.2,8.7C2.9,8.4,1.7,7.1,1.4,7.3 C1.6,7,1.7,6.6,1.8,6.2L3.1,3.7z" fill="#ffffff" transform="translate(-5 -5)"></path>
</g></g></g><g transform="translate(0 196.197)">
<animateTransform attributeName="transform" type="translate" values="0 0;0 200" keyTimes="0;1" repeatCount="indefinite" dur="5s" begin="-5.154932453375932s"></animateTransform>
<g transform="translate(142.75442258366544 119.59624656692893)"><g transform="scale(0.2755639875677976)">
<path d="M3.1,3.7C3.9,2.9,5,2.5,5.8,1.8c0.3-0.3,0.6-0.6,1-0.7c0.6-0.2,1.2,0.1,1.7,0C8,3.3,8.2,5.6,8.2,7.8c0,0,0,0.1,0,0.1 c0,0.1-0.1,0.1-0.2,0.1c-1.3,0.5-2.7,0.3-4,0.8C3.9,8.9,3.8,9,3.6,9C3.4,9,3.3,8.9,3.2,8.7C2.9,8.4,1.7,7.1,1.4,7.3 C1.6,7,1.7,6.6,1.8,6.2L3.1,3.7z" fill="#ffffff" transform="translate(-5 -5)"></path>
</g></g></g><g transform="translate(0 196.197)">
<animateTransform attributeName="transform" type="translate" values="0 0;0 200" keyTimes="0;1" repeatCount="indefinite" dur="5s" begin="-5.154932453375932s"></animateTransform>
<g transform="translate(142.75442258366544 319.5962465669289)"><g transform="scale(0.2755639875677976)">
<path d="M3.1,3.7C3.9,2.9,5,2.5,5.8,1.8c0.3-0.3,0.6-0.6,1-0.7c0.6-0.2,1.2,0.1,1.7,0C8,3.3,8.2,5.6,8.2,7.8c0,0,0,0.1,0,0.1 c0,0.1-0.1,0.1-0.2,0.1c-1.3,0.5-2.7,0.3-4,0.8C3.9,8.9,3.8,9,3.6,9C3.4,9,3.3,8.9,3.2,8.7C2.9,8.4,1.7,7.1,1.4,7.3 C1.6,7,1.7,6.6,1.8,6.2L3.1,3.7z" fill="#ffffff" transform="translate(-5 -5)"></path>
</g></g></g><g transform="translate(0 105.106)">
<animateTransform attributeName="transform" type="translate" values="0 0;0 200" keyTimes="0;1" repeatCount="indefinite" dur="2.5s" begin="-9.063830465877528s"></animateTransform>
<g transform="translate(81.87269881190285 -58.69333712439635)"><g transform="scale(0.09261309470513467)">
<path d="M5.3,1.8C4.2,1.2,2.6,1.7,1.8,2.6s-1,2.4-0.7,3.7c0.1,0.4,0.3,0.8,0.5,1.1C2,7.8,2.4,8,2.9,8.2c2.1,0.7,4.6-0.1,5.9-2 C8.9,6,9,5.8,9,5.6C9,5.4,8.9,5.2,8.8,5c-0.3-0.6-0.5-1.2-1-1.7C7.2,2.6,6.3,2.1,5.3,1.8z" fill="#e4812f" transform="translate(-5 -5)"></path>
</g></g></g><g transform="translate(0 105.106)">
<animateTransform attributeName="transform" type="translate" values="0 0;0 200" keyTimes="0;1" repeatCount="indefinite" dur="2.5s" begin="-9.063830465877528s"></animateTransform>
<g transform="translate(81.87269881190285 141.30666287560365)"><g transform="scale(0.09261309470513467)">
<path d="M5.3,1.8C4.2,1.2,2.6,1.7,1.8,2.6s-1,2.4-0.7,3.7c0.1,0.4,0.3,0.8,0.5,1.1C2,7.8,2.4,8,2.9,8.2c2.1,0.7,4.6-0.1,5.9-2 C8.9,6,9,5.8,9,5.6C9,5.4,8.9,5.2,8.8,5c-0.3-0.6-0.5-1.2-1-1.7C7.2,2.6,6.3,2.1,5.3,1.8z" fill="#e4812f" transform="translate(-5 -5)"></path>
</g></g></g><g transform="translate(0 105.106)">
<animateTransform attributeName="transform" type="translate" values="0 0;0 200" keyTimes="0;1" repeatCount="indefinite" dur="2.5s" begin="-9.063830465877528s"></animateTransform>
<g transform="translate(81.87269881190285 341.30666287560365)"><g transform="scale(0.09261309470513467)">
<path d="M5.3,1.8C4.2,1.2,2.6,1.7,1.8,2.6s-1,2.4-0.7,3.7c0.1,0.4,0.3,0.8,0.5,1.1C2,7.8,2.4,8,2.9,8.2c2.1,0.7,4.6-0.1,5.9-2 C8.9,6,9,5.8,9,5.6C9,5.4,8.9,5.2,8.8,5c-0.3-0.6-0.5-1.2-1-1.7C7.2,2.6,6.3,2.1,5.3,1.8z" fill="#e4812f" transform="translate(-5 -5)"></path>
</g></g></g><g transform="translate(0 107.231)">
<animateTransform attributeName="transform" type="translate" values="0 0;0 200" keyTimes="0;1" repeatCount="indefinite" dur="2.5s" begin="-6.5903898447024565s"></animateTransform>
<g transform="translate(12.506832346377529 -26.29934903330144)"><g transform="scale(0.18948229486098173)">
<path d="M1.8,8.9c0.6-1.3,1.2-2.6,1.8-4c0.4-0.8,0.8-1.7,1.3-2.4S6.2,1.2,7.1,1c0.4,0.8,1,1.5,1.1,2.4C8.3,4.1,8,4.9,7.6,5.6 S6.6,6.8,6,7.3C5.6,7.8,5.1,8.2,4.5,8.4C3.7,8.8,2.7,8.6,1.9,9L1.8,8.9z" fill="#e4812f" transform="translate(-5 -5)"></path>
</g></g></g><g transform="translate(0 107.231)">
<animateTransform attributeName="transform" type="translate" values="0 0;0 200" keyTimes="0;1" repeatCount="indefinite" dur="2.5s" begin="-6.5903898447024565s"></animateTransform>
<g transform="translate(12.506832346377529 173.70065096669856)"><g transform="scale(0.18948229486098173)">
<path d="M1.8,8.9c0.6-1.3,1.2-2.6,1.8-4c0.4-0.8,0.8-1.7,1.3-2.4S6.2,1.2,7.1,1c0.4,0.8,1,1.5,1.1,2.4C8.3,4.1,8,4.9,7.6,5.6 S6.6,6.8,6,7.3C5.6,7.8,5.1,8.2,4.5,8.4C3.7,8.8,2.7,8.6,1.9,9L1.8,8.9z" fill="#e4812f" transform="translate(-5 -5)"></path>
</g></g></g><g transform="translate(0 107.231)">
<animateTransform attributeName="transform" type="translate" values="0 0;0 200" keyTimes="0;1" repeatCount="indefinite" dur="2.5s" begin="-6.5903898447024565s"></animateTransform>
<g transform="translate(12.506832346377529 373.70065096669856)"><g transform="scale(0.18948229486098173)">
<path d="M1.8,8.9c0.6-1.3,1.2-2.6,1.8-4c0.4-0.8,0.8-1.7,1.3-2.4S6.2,1.2,7.1,1c0.4,0.8,1,1.5,1.1,2.4C8.3,4.1,8,4.9,7.6,5.6 S6.6,6.8,6,7.3C5.6,7.8,5.1,8.2,4.5,8.4C3.7,8.8,2.7,8.6,1.9,9L1.8,8.9z" fill="#e4812f" transform="translate(-5 -5)"></path>
</g></g></g><g transform="translate(0 29.7113)">
<animateTransform attributeName="transform" type="translate" values="0 0;0 200" keyTimes="0;1" repeatCount="indefinite" dur="10s" begin="-6.735566484177831s"></animateTransform>
<g transform="translate(19.16293396675383 -96.25488067722034)"><g transform="scale(0.12365415758032275)">
<path d="M5.3,1.8C4.2,1.2,2.6,1.7,1.8,2.6s-1,2.4-0.7,3.7c0.1,0.4,0.3,0.8,0.5,1.1C2,7.8,2.4,8,2.9,8.2c2.1,0.7,4.6-0.1,5.9-2 C8.9,6,9,5.8,9,5.6C9,5.4,8.9,5.2,8.8,5c-0.3-0.6-0.5-1.2-1-1.7C7.2,2.6,6.3,2.1,5.3,1.8z" fill="#28292f" transform="translate(-5 -5)"></path>
</g></g></g><g transform="translate(0 29.7113)">
<animateTransform attributeName="transform" type="translate" values="0 0;0 200" keyTimes="0;1" repeatCount="indefinite" dur="10s" begin="-6.735566484177831s"></animateTransform>
<g transform="translate(19.16293396675383 103.74511932277966)"><g transform="scale(0.12365415758032275)">
<path d="M5.3,1.8C4.2,1.2,2.6,1.7,1.8,2.6s-1,2.4-0.7,3.7c0.1,0.4,0.3,0.8,0.5,1.1C2,7.8,2.4,8,2.9,8.2c2.1,0.7,4.6-0.1,5.9-2 C8.9,6,9,5.8,9,5.6C9,5.4,8.9,5.2,8.8,5c-0.3-0.6-0.5-1.2-1-1.7C7.2,2.6,6.3,2.1,5.3,1.8z" fill="#28292f" transform="translate(-5 -5)"></path>
</g></g></g><g transform="translate(0 29.7113)">
<animateTransform attributeName="transform" type="translate" values="0 0;0 200" keyTimes="0;1" repeatCount="indefinite" dur="10s" begin="-6.735566484177831s"></animateTransform>
<g transform="translate(19.16293396675383 303.74511932277966)"><g transform="scale(0.12365415758032275)">
<path d="M5.3,1.8C4.2,1.2,2.6,1.7,1.8,2.6s-1,2.4-0.7,3.7c0.1,0.4,0.3,0.8,0.5,1.1C2,7.8,2.4,8,2.9,8.2c2.1,0.7,4.6-0.1,5.9-2 C8.9,6,9,5.8,9,5.6C9,5.4,8.9,5.2,8.8,5c-0.3-0.6-0.5-1.2-1-1.7C7.2,2.6,6.3,2.1,5.3,1.8z" fill="#28292f" transform="translate(-5 -5)"></path>
</g></g></g><g transform="translate(0 181.415)">
<animateTransform attributeName="transform" type="translate" values="0 0;0 200" keyTimes="0;1" repeatCount="indefinite" dur="5s" begin="-4.785376756968995s"></animateTransform>
<g transform="translate(98.37253963976617 -96.217272783029)"><g transform="scale(0.6434647909693674)">
<path d="M3.1,3.7C3.9,2.9,5,2.5,5.8,1.8c0.3-0.3,0.6-0.6,1-0.7c0.6-0.2,1.2,0.1,1.7,0C8,3.3,8.2,5.6,8.2,7.8c0,0,0,0.1,0,0.1 c0,0.1-0.1,0.1-0.2,0.1c-1.3,0.5-2.7,0.3-4,0.8C3.9,8.9,3.8,9,3.6,9C3.4,9,3.3,8.9,3.2,8.7C2.9,8.4,1.7,7.1,1.4,7.3 C1.6,7,1.7,6.6,1.8,6.2L3.1,3.7z" fill="#ffffff" transform="translate(-5 -5)"></path>
</g></g></g><g transform="translate(0 181.415)">
<animateTransform attributeName="transform" type="translate" values="0 0;0 200" keyTimes="0;1" repeatCount="indefinite" dur="5s" begin="-4.785376756968995s"></animateTransform>
<g transform="translate(98.37253963976617 103.782727216971)"><g transform="scale(0.6434647909693674)">
<path d="M3.1,3.7C3.9,2.9,5,2.5,5.8,1.8c0.3-0.3,0.6-0.6,1-0.7c0.6-0.2,1.2,0.1,1.7,0C8,3.3,8.2,5.6,8.2,7.8c0,0,0,0.1,0,0.1 c0,0.1-0.1,0.1-0.2,0.1c-1.3,0.5-2.7,0.3-4,0.8C3.9,8.9,3.8,9,3.6,9C3.4,9,3.3,8.9,3.2,8.7C2.9,8.4,1.7,7.1,1.4,7.3 C1.6,7,1.7,6.6,1.8,6.2L3.1,3.7z" fill="#ffffff" transform="translate(-5 -5)"></path>
</g></g></g><g transform="translate(0 181.415)">
<animateTransform attributeName="transform" type="translate" values="0 0;0 200" keyTimes="0;1" repeatCount="indefinite" dur="5s" begin="-4.785376756968995s"></animateTransform>
<g transform="translate(98.37253963976617 303.782727216971)"><g transform="scale(0.6434647909693674)">
<path d="M3.1,3.7C3.9,2.9,5,2.5,5.8,1.8c0.3-0.3,0.6-0.6,1-0.7c0.6-0.2,1.2,0.1,1.7,0C8,3.3,8.2,5.6,8.2,7.8c0,0,0,0.1,0,0.1 c0,0.1-0.1,0.1-0.2,0.1c-1.3,0.5-2.7,0.3-4,0.8C3.9,8.9,3.8,9,3.6,9C3.4,9,3.3,8.9,3.2,8.7C2.9,8.4,1.7,7.1,1.4,7.3 C1.6,7,1.7,6.6,1.8,6.2L3.1,3.7z" fill="#ffffff" transform="translate(-5 -5)"></path>
</g></g></g><g transform="translate(0 143.567)">
<animateTransform attributeName="transform" type="translate" values="0 0;0 200" keyTimes="0;1" repeatCount="indefinite" dur="5s" begin="-8.839166573703235s"></animateTransform>
<g transform="translate(35.47562974609721 -182.7600739021653)"><g transform="scale(0.145690254315461)">
<path d="M3.1,3.7C3.9,2.9,5,2.5,5.8,1.8c0.3-0.3,0.6-0.6,1-0.7c0.6-0.2,1.2,0.1,1.7,0C8,3.3,8.2,5.6,8.2,7.8c0,0,0,0.1,0,0.1 c0,0.1-0.1,0.1-0.2,0.1c-1.3,0.5-2.7,0.3-4,0.8C3.9,8.9,3.8,9,3.6,9C3.4,9,3.3,8.9,3.2,8.7C2.9,8.4,1.7,7.1,1.4,7.3 C1.6,7,1.7,6.6,1.8,6.2L3.1,3.7z" fill="#e4812f" transform="translate(-5 -5)"></path>
</g></g></g><g transform="translate(0 143.567)">
<animateTransform attributeName="transform" type="translate" values="0 0;0 200" keyTimes="0;1" repeatCount="indefinite" dur="5s" begin="-8.839166573703235s"></animateTransform>
<g transform="translate(35.47562974609721 17.239926097834697)"><g transform="scale(0.145690254315461)">
<path d="M3.1,3.7C3.9,2.9,5,2.5,5.8,1.8c0.3-0.3,0.6-0.6,1-0.7c0.6-0.2,1.2,0.1,1.7,0C8,3.3,8.2,5.6,8.2,7.8c0,0,0,0.1,0,0.1 c0,0.1-0.1,0.1-0.2,0.1c-1.3,0.5-2.7,0.3-4,0.8C3.9,8.9,3.8,9,3.6,9C3.4,9,3.3,8.9,3.2,8.7C2.9,8.4,1.7,7.1,1.4,7.3 C1.6,7,1.7,6.6,1.8,6.2L3.1,3.7z" fill="#e4812f" transform="translate(-5 -5)"></path>
</g></g></g><g transform="translate(0 143.567)">
<animateTransform attributeName="transform" type="translate" values="0 0;0 200" keyTimes="0;1" repeatCount="indefinite" dur="5s" begin="-8.839166573703235s"></animateTransform>
<g transform="translate(35.47562974609721 217.2399260978347)"><g transform="scale(0.145690254315461)">
<path d="M3.1,3.7C3.9,2.9,5,2.5,5.8,1.8c0.3-0.3,0.6-0.6,1-0.7c0.6-0.2,1.2,0.1,1.7,0C8,3.3,8.2,5.6,8.2,7.8c0,0,0,0.1,0,0.1 c0,0.1-0.1,0.1-0.2,0.1c-1.3,0.5-2.7,0.3-4,0.8C3.9,8.9,3.8,9,3.6,9C3.4,9,3.3,8.9,3.2,8.7C2.9,8.4,1.7,7.1,1.4,7.3 C1.6,7,1.7,6.6,1.8,6.2L3.1,3.7z" fill="#e4812f" transform="translate(-5 -5)"></path>
</g></g></g><g transform="translate(0 120.647)">
<animateTransform attributeName="transform" type="translate" values="0 0;0 200" keyTimes="0;1" repeatCount="indefinite" dur="2.5s" begin="-1.758086978739621s"></animateTransform>
<g transform="translate(106.29706498131671 -51.46027270209527)"><g transform="scale(0.07605522169076415)">
<path d="M3.1,3.7C3.9,2.9,5,2.5,5.8,1.8c0.3-0.3,0.6-0.6,1-0.7c0.6-0.2,1.2,0.1,1.7,0C8,3.3,8.2,5.6,8.2,7.8c0,0,0,0.1,0,0.1 c0,0.1-0.1,0.1-0.2,0.1c-1.3,0.5-2.7,0.3-4,0.8C3.9,8.9,3.8,9,3.6,9C3.4,9,3.3,8.9,3.2,8.7C2.9,8.4,1.7,7.1,1.4,7.3 C1.6,7,1.7,6.6,1.8,6.2L3.1,3.7z" fill="#f9ae5c" transform="translate(-5 -5)"></path>
</g></g></g><g transform="translate(0 120.647)">
<animateTransform attributeName="transform" type="translate" values="0 0;0 200" keyTimes="0;1" repeatCount="indefinite" dur="2.5s" begin="-1.758086978739621s"></animateTransform>
<g transform="translate(106.29706498131671 148.53972729790473)"><g transform="scale(0.07605522169076415)">
<path d="M3.1,3.7C3.9,2.9,5,2.5,5.8,1.8c0.3-0.3,0.6-0.6,1-0.7c0.6-0.2,1.2,0.1,1.7,0C8,3.3,8.2,5.6,8.2,7.8c0,0,0,0.1,0,0.1 c0,0.1-0.1,0.1-0.2,0.1c-1.3,0.5-2.7,0.3-4,0.8C3.9,8.9,3.8,9,3.6,9C3.4,9,3.3,8.9,3.2,8.7C2.9,8.4,1.7,7.1,1.4,7.3 C1.6,7,1.7,6.6,1.8,6.2L3.1,3.7z" fill="#f9ae5c" transform="translate(-5 -5)"></path>
</g></g></g><g transform="translate(0 120.647)">
<animateTransform attributeName="transform" type="translate" values="0 0;0 200" keyTimes="0;1" repeatCount="indefinite" dur="2.5s" begin="-1.758086978739621s"></animateTransform>
<g transform="translate(106.29706498131671 348.53972729790473)"><g transform="scale(0.07605522169076415)">
<path d="M3.1,3.7C3.9,2.9,5,2.5,5.8,1.8c0.3-0.3,0.6-0.6,1-0.7c0.6-0.2,1.2,0.1,1.7,0C8,3.3,8.2,5.6,8.2,7.8c0,0,0,0.1,0,0.1 c0,0.1-0.1,0.1-0.2,0.1c-1.3,0.5-2.7,0.3-4,0.8C3.9,8.9,3.8,9,3.6,9C3.4,9,3.3,8.9,3.2,8.7C2.9,8.4,1.7,7.1,1.4,7.3 C1.6,7,1.7,6.6,1.8,6.2L3.1,3.7z" fill="#f9ae5c" transform="translate(-5 -5)"></path>
</g></g></g><g transform="translate(0 142.438)">
<animateTransform attributeName="transform" type="translate" values="0 0;0 200" keyTimes="0;1" repeatCount="indefinite" dur="10s" begin="-2.3718999039513133s"></animateTransform>
<g transform="translate(174.61160170145956 -28.607579624550084)"><g transform="scale(0.14142727690893764)">
<path d="M5.3,1.8C4.2,1.2,2.6,1.7,1.8,2.6s-1,2.4-0.7,3.7c0.1,0.4,0.3,0.8,0.5,1.1C2,7.8,2.4,8,2.9,8.2c2.1,0.7,4.6-0.1,5.9-2 C8.9,6,9,5.8,9,5.6C9,5.4,8.9,5.2,8.8,5c-0.3-0.6-0.5-1.2-1-1.7C7.2,2.6,6.3,2.1,5.3,1.8z" fill="#f9ae5c" transform="translate(-5 -5)"></path>
</g></g></g><g transform="translate(0 142.438)">
<animateTransform attributeName="transform" type="translate" values="0 0;0 200" keyTimes="0;1" repeatCount="indefinite" dur="10s" begin="-2.3718999039513133s"></animateTransform>
<g transform="translate(174.61160170145956 171.39242037544992)"><g transform="scale(0.14142727690893764)">
<path d="M5.3,1.8C4.2,1.2,2.6,1.7,1.8,2.6s-1,2.4-0.7,3.7c0.1,0.4,0.3,0.8,0.5,1.1C2,7.8,2.4,8,2.9,8.2c2.1,0.7,4.6-0.1,5.9-2 C8.9,6,9,5.8,9,5.6C9,5.4,8.9,5.2,8.8,5c-0.3-0.6-0.5-1.2-1-1.7C7.2,2.6,6.3,2.1,5.3,1.8z" fill="#f9ae5c" transform="translate(-5 -5)"></path>
</g></g></g><g transform="translate(0 142.438)">
<animateTransform attributeName="transform" type="translate" values="0 0;0 200" keyTimes="0;1" repeatCount="indefinite" dur="10s" begin="-2.3718999039513133s"></animateTransform>
<g transform="translate(174.61160170145956 371.3924203754499)"><g transform="scale(0.14142727690893764)">
<path d="M5.3,1.8C4.2,1.2,2.6,1.7,1.8,2.6s-1,2.4-0.7,3.7c0.1,0.4,0.3,0.8,0.5,1.1C2,7.8,2.4,8,2.9,8.2c2.1,0.7,4.6-0.1,5.9-2 C8.9,6,9,5.8,9,5.6C9,5.4,8.9,5.2,8.8,5c-0.3-0.6-0.5-1.2-1-1.7C7.2,2.6,6.3,2.1,5.3,1.8z" fill="#f9ae5c" transform="translate(-5 -5)"></path>
</g></g></g><g transform="translate(0 113.784)">
<animateTransform attributeName="transform" type="translate" values="0 0;0 200" keyTimes="0;1" repeatCount="indefinite" dur="10s" begin="-0.939179679112087s"></animateTransform>
<g transform="translate(74.66843299355509 -158.72254327260958)"><g transform="scale(0.41396266831717143)">
<path d="M1.8,8.9c0.6-1.3,1.2-2.6,1.8-4c0.4-0.8,0.8-1.7,1.3-2.4S6.2,1.2,7.1,1c0.4,0.8,1,1.5,1.1,2.4C8.3,4.1,8,4.9,7.6,5.6 S6.6,6.8,6,7.3C5.6,7.8,5.1,8.2,4.5,8.4C3.7,8.8,2.7,8.6,1.9,9L1.8,8.9z" fill="#f9ae5c" transform="translate(-5 -5)"></path>
</g></g></g><g transform="translate(0 113.784)">
<animateTransform attributeName="transform" type="translate" values="0 0;0 200" keyTimes="0;1" repeatCount="indefinite" dur="10s" begin="-0.939179679112087s"></animateTransform>
<g transform="translate(74.66843299355509 41.27745672739043)"><g transform="scale(0.41396266831717143)">
<path d="M1.8,8.9c0.6-1.3,1.2-2.6,1.8-4c0.4-0.8,0.8-1.7,1.3-2.4S6.2,1.2,7.1,1c0.4,0.8,1,1.5,1.1,2.4C8.3,4.1,8,4.9,7.6,5.6 S6.6,6.8,6,7.3C5.6,7.8,5.1,8.2,4.5,8.4C3.7,8.8,2.7,8.6,1.9,9L1.8,8.9z" fill="#f9ae5c" transform="translate(-5 -5)"></path>
</g></g></g><g transform="translate(0 113.784)">
<animateTransform attributeName="transform" type="translate" values="0 0;0 200" keyTimes="0;1" repeatCount="indefinite" dur="10s" begin="-0.939179679112087s"></animateTransform>
<g transform="translate(74.66843299355509 241.27745672739042)"><g transform="scale(0.41396266831717143)">
<path d="M1.8,8.9c0.6-1.3,1.2-2.6,1.8-4c0.4-0.8,0.8-1.7,1.3-2.4S6.2,1.2,7.1,1c0.4,0.8,1,1.5,1.1,2.4C8.3,4.1,8,4.9,7.6,5.6 S6.6,6.8,6,7.3C5.6,7.8,5.1,8.2,4.5,8.4C3.7,8.8,2.7,8.6,1.9,9L1.8,8.9z" fill="#f9ae5c" transform="translate(-5 -5)"></path>
</g></g></g><g transform="translate(0 194.152)">
<animateTransform attributeName="transform" type="translate" values="0 0;0 200" keyTimes="0;1" repeatCount="indefinite" dur="10s" begin="-4.957620702303396s"></animateTransform>
<g transform="translate(198.16142866078684 -13.329366202224293)"><g transform="scale(0.569631518449973)">
<path d="M5.3,1.8C4.2,1.2,2.6,1.7,1.8,2.6s-1,2.4-0.7,3.7c0.1,0.4,0.3,0.8,0.5,1.1C2,7.8,2.4,8,2.9,8.2c2.1,0.7,4.6-0.1,5.9-2 C8.9,6,9,5.8,9,5.6C9,5.4,8.9,5.2,8.8,5c-0.3-0.6-0.5-1.2-1-1.7C7.2,2.6,6.3,2.1,5.3,1.8z" fill="#0a0a0a" transform="translate(-5 -5)"></path>
</g></g></g><g transform="translate(0 194.152)">
<animateTransform attributeName="transform" type="translate" values="0 0;0 200" keyTimes="0;1" repeatCount="indefinite" dur="10s" begin="-4.957620702303396s"></animateTransform>
<g transform="translate(198.16142866078684 186.6706337977757)"><g transform="scale(0.569631518449973)">
<path d="M5.3,1.8C4.2,1.2,2.6,1.7,1.8,2.6s-1,2.4-0.7,3.7c0.1,0.4,0.3,0.8,0.5,1.1C2,7.8,2.4,8,2.9,8.2c2.1,0.7,4.6-0.1,5.9-2 C8.9,6,9,5.8,9,5.6C9,5.4,8.9,5.2,8.8,5c-0.3-0.6-0.5-1.2-1-1.7C7.2,2.6,6.3,2.1,5.3,1.8z" fill="#0a0a0a" transform="translate(-5 -5)"></path>
</g></g></g><g transform="translate(0 194.152)">
<animateTransform attributeName="transform" type="translate" values="0 0;0 200" keyTimes="0;1" repeatCount="indefinite" dur="10s" begin="-4.957620702303396s"></animateTransform>
<g transform="translate(198.16142866078684 386.67063379777574)"><g transform="scale(0.569631518449973)">
<path d="M5.3,1.8C4.2,1.2,2.6,1.7,1.8,2.6s-1,2.4-0.7,3.7c0.1,0.4,0.3,0.8,0.5,1.1C2,7.8,2.4,8,2.9,8.2c2.1,0.7,4.6-0.1,5.9-2 C8.9,6,9,5.8,9,5.6C9,5.4,8.9,5.2,8.8,5c-0.3-0.6-0.5-1.2-1-1.7C7.2,2.6,6.3,2.1,5.3,1.8z" fill="#0a0a0a" transform="translate(-5 -5)"></path>
</g></g></g><g transform="translate(0 92.9844)">
<animateTransform attributeName="transform" type="translate" values="0 0;0 200" keyTimes="0;1" repeatCount="indefinite" dur="5s" begin="-2.5746096426934746s"></animateTransform>
<g transform="translate(104.96698237622635 -45.0306214847343)"><g transform="scale(0.3698978929674494)">
<path d="M1,4.7C1,4,1.2,3.4,1.4,2.8C1.6,2.5,1.7,2.1,2,1.9c0.3-0.2,0.6-0.4,0.9-0.5C4.3,0.9,5.8,1,7.3,1.3c0.6,0.2,1.3,0.5,1.6,1.1 C9.1,2.9,9,3.5,8.9,4C8.7,5,8.6,6,8.6,7c0,0.1,0,0.2,0,0.3C8.5,7.4,8.3,7.5,8.2,7.6C7.6,7.8,7.1,8.1,6.5,8.3 C5.9,8.6,5.3,8.9,4.7,8.9c-0.4,0-0.8,0-1.2-0.1C2.7,8.8,1,8.7,1,8.7L1,6L1,4.7z" fill="#28292f" transform="translate(-5 -5)"></path>
</g></g></g><g transform="translate(0 92.9844)">
<animateTransform attributeName="transform" type="translate" values="0 0;0 200" keyTimes="0;1" repeatCount="indefinite" dur="5s" begin="-2.5746096426934746s"></animateTransform>
<g transform="translate(104.96698237622635 154.9693785152657)"><g transform="scale(0.3698978929674494)">
<path d="M1,4.7C1,4,1.2,3.4,1.4,2.8C1.6,2.5,1.7,2.1,2,1.9c0.3-0.2,0.6-0.4,0.9-0.5C4.3,0.9,5.8,1,7.3,1.3c0.6,0.2,1.3,0.5,1.6,1.1 C9.1,2.9,9,3.5,8.9,4C8.7,5,8.6,6,8.6,7c0,0.1,0,0.2,0,0.3C8.5,7.4,8.3,7.5,8.2,7.6C7.6,7.8,7.1,8.1,6.5,8.3 C5.9,8.6,5.3,8.9,4.7,8.9c-0.4,0-0.8,0-1.2-0.1C2.7,8.8,1,8.7,1,8.7L1,6L1,4.7z" fill="#28292f" transform="translate(-5 -5)"></path>
</g></g></g><g transform="translate(0 92.9844)">
<animateTransform attributeName="transform" type="translate" values="0 0;0 200" keyTimes="0;1" repeatCount="indefinite" dur="5s" begin="-2.5746096426934746s"></animateTransform>
<g transform="translate(104.96698237622635 354.9693785152657)"><g transform="scale(0.3698978929674494)">
<path d="M1,4.7C1,4,1.2,3.4,1.4,2.8C1.6,2.5,1.7,2.1,2,1.9c0.3-0.2,0.6-0.4,0.9-0.5C4.3,0.9,5.8,1,7.3,1.3c0.6,0.2,1.3,0.5,1.6,1.1 C9.1,2.9,9,3.5,8.9,4C8.7,5,8.6,6,8.6,7c0,0.1,0,0.2,0,0.3C8.5,7.4,8.3,7.5,8.2,7.6C7.6,7.8,7.1,8.1,6.5,8.3 C5.9,8.6,5.3,8.9,4.7,8.9c-0.4,0-0.8,0-1.2-0.1C2.7,8.8,1,8.7,1,8.7L1,6L1,4.7z" fill="#28292f" transform="translate(-5 -5)"></path>
</g></g></g><g transform="translate(0 13.7666)">
<animateTransform attributeName="transform" type="translate" values="0 0;0 200" keyTimes="0;1" repeatCount="indefinite" dur="5s" begin="-5.594165045587119s"></animateTransform>
<g transform="translate(186.99444992997857 -46.30837402252402)"><g transform="scale(0.32381939875520577)">
<path d="M3.1,3.7C3.9,2.9,5,2.5,5.8,1.8c0.3-0.3,0.6-0.6,1-0.7c0.6-0.2,1.2,0.1,1.7,0C8,3.3,8.2,5.6,8.2,7.8c0,0,0,0.1,0,0.1 c0,0.1-0.1,0.1-0.2,0.1c-1.3,0.5-2.7,0.3-4,0.8C3.9,8.9,3.8,9,3.6,9C3.4,9,3.3,8.9,3.2,8.7C2.9,8.4,1.7,7.1,1.4,7.3 C1.6,7,1.7,6.6,1.8,6.2L3.1,3.7z" fill="#f9ae5c" transform="translate(-5 -5)"></path>
</g></g></g><g transform="translate(0 13.7666)">
<animateTransform attributeName="transform" type="translate" values="0 0;0 200" keyTimes="0;1" repeatCount="indefinite" dur="5s" begin="-5.594165045587119s"></animateTransform>
<g transform="translate(186.99444992997857 153.69162597747598)"><g transform="scale(0.32381939875520577)">
<path d="M3.1,3.7C3.9,2.9,5,2.5,5.8,1.8c0.3-0.3,0.6-0.6,1-0.7c0.6-0.2,1.2,0.1,1.7,0C8,3.3,8.2,5.6,8.2,7.8c0,0,0,0.1,0,0.1 c0,0.1-0.1,0.1-0.2,0.1c-1.3,0.5-2.7,0.3-4,0.8C3.9,8.9,3.8,9,3.6,9C3.4,9,3.3,8.9,3.2,8.7C2.9,8.4,1.7,7.1,1.4,7.3 C1.6,7,1.7,6.6,1.8,6.2L3.1,3.7z" fill="#f9ae5c" transform="translate(-5 -5)"></path>
</g></g></g><g transform="translate(0 13.7666)">
<animateTransform attributeName="transform" type="translate" values="0 0;0 200" keyTimes="0;1" repeatCount="indefinite" dur="5s" begin="-5.594165045587119s"></animateTransform>
<g transform="translate(186.99444992997857 353.69162597747595)"><g transform="scale(0.32381939875520577)">
<path d="M3.1,3.7C3.9,2.9,5,2.5,5.8,1.8c0.3-0.3,0.6-0.6,1-0.7c0.6-0.2,1.2,0.1,1.7,0C8,3.3,8.2,5.6,8.2,7.8c0,0,0,0.1,0,0.1 c0,0.1-0.1,0.1-0.2,0.1c-1.3,0.5-2.7,0.3-4,0.8C3.9,8.9,3.8,9,3.6,9C3.4,9,3.3,8.9,3.2,8.7C2.9,8.4,1.7,7.1,1.4,7.3 C1.6,7,1.7,6.6,1.8,6.2L3.1,3.7z" fill="#f9ae5c" transform="translate(-5 -5)"></path>
</g></g></g><g transform="translate(0 35.66)">
<animateTransform attributeName="transform" type="translate" values="0 0;0 200" keyTimes="0;1" repeatCount="indefinite" dur="2.5s" begin="-0.6957503429474009s"></animateTransform>
<g transform="translate(42.61890215091006 -14.626687055018692)"><g transform="scale(0.5936739894585937)">
<path d="M3.1,3.7C3.9,2.9,5,2.5,5.8,1.8c0.3-0.3,0.6-0.6,1-0.7c0.6-0.2,1.2,0.1,1.7,0C8,3.3,8.2,5.6,8.2,7.8c0,0,0,0.1,0,0.1 c0,0.1-0.1,0.1-0.2,0.1c-1.3,0.5-2.7,0.3-4,0.8C3.9,8.9,3.8,9,3.6,9C3.4,9,3.3,8.9,3.2,8.7C2.9,8.4,1.7,7.1,1.4,7.3 C1.6,7,1.7,6.6,1.8,6.2L3.1,3.7z" fill="#e4812f" transform="translate(-5 -5)"></path>
</g></g></g><g transform="translate(0 35.66)">
<animateTransform attributeName="transform" type="translate" values="0 0;0 200" keyTimes="0;1" repeatCount="indefinite" dur="2.5s" begin="-0.6957503429474009s"></animateTransform>
<g transform="translate(42.61890215091006 185.3733129449813)"><g transform="scale(0.5936739894585937)">
<path d="M3.1,3.7C3.9,2.9,5,2.5,5.8,1.8c0.3-0.3,0.6-0.6,1-0.7c0.6-0.2,1.2,0.1,1.7,0C8,3.3,8.2,5.6,8.2,7.8c0,0,0,0.1,0,0.1 c0,0.1-0.1,0.1-0.2,0.1c-1.3,0.5-2.7,0.3-4,0.8C3.9,8.9,3.8,9,3.6,9C3.4,9,3.3,8.9,3.2,8.7C2.9,8.4,1.7,7.1,1.4,7.3 C1.6,7,1.7,6.6,1.8,6.2L3.1,3.7z" fill="#e4812f" transform="translate(-5 -5)"></path>
</g></g></g><g transform="translate(0 35.66)">
<animateTransform attributeName="transform" type="translate" values="0 0;0 200" keyTimes="0;1" repeatCount="indefinite" dur="2.5s" begin="-0.6957503429474009s"></animateTransform>
<g transform="translate(42.61890215091006 385.3733129449813)"><g transform="scale(0.5936739894585937)">
<path d="M3.1,3.7C3.9,2.9,5,2.5,5.8,1.8c0.3-0.3,0.6-0.6,1-0.7c0.6-0.2,1.2,0.1,1.7,0C8,3.3,8.2,5.6,8.2,7.8c0,0,0,0.1,0,0.1 c0,0.1-0.1,0.1-0.2,0.1c-1.3,0.5-2.7,0.3-4,0.8C3.9,8.9,3.8,9,3.6,9C3.4,9,3.3,8.9,3.2,8.7C2.9,8.4,1.7,7.1,1.4,7.3 C1.6,7,1.7,6.6,1.8,6.2L3.1,3.7z" fill="#e4812f" transform="translate(-5 -5)"></path>
</g></g></g><g transform="translate(0 154.553)">
<animateTransform attributeName="transform" type="translate" values="0 0;0 200" keyTimes="0;1" repeatCount="indefinite" dur="3.3333333333333335s" begin="-1.1592117617003557s"></animateTransform>
<g transform="translate(199.33144287930205 -50.87980545625885)"><g transform="scale(0.5326375661524413)">
<path d="M5.3,1.8C4.2,1.2,2.6,1.7,1.8,2.6s-1,2.4-0.7,3.7c0.1,0.4,0.3,0.8,0.5,1.1C2,7.8,2.4,8,2.9,8.2c2.1,0.7,4.6-0.1,5.9-2 C8.9,6,9,5.8,9,5.6C9,5.4,8.9,5.2,8.8,5c-0.3-0.6-0.5-1.2-1-1.7C7.2,2.6,6.3,2.1,5.3,1.8z" fill="#ffffff" transform="translate(-5 -5)"></path>
</g></g></g><g transform="translate(0 154.553)">
<animateTransform attributeName="transform" type="translate" values="0 0;0 200" keyTimes="0;1" repeatCount="indefinite" dur="3.3333333333333335s" begin="-1.1592117617003557s"></animateTransform>
<g transform="translate(199.33144287930205 149.12019454374115)"><g transform="scale(0.5326375661524413)">
<path d="M5.3,1.8C4.2,1.2,2.6,1.7,1.8,2.6s-1,2.4-0.7,3.7c0.1,0.4,0.3,0.8,0.5,1.1C2,7.8,2.4,8,2.9,8.2c2.1,0.7,4.6-0.1,5.9-2 C8.9,6,9,5.8,9,5.6C9,5.4,8.9,5.2,8.8,5c-0.3-0.6-0.5-1.2-1-1.7C7.2,2.6,6.3,2.1,5.3,1.8z" fill="#ffffff" transform="translate(-5 -5)"></path>
</g></g></g><g transform="translate(0 154.553)">
<animateTransform attributeName="transform" type="translate" values="0 0;0 200" keyTimes="0;1" repeatCount="indefinite" dur="3.3333333333333335s" begin="-1.1592117617003557s"></animateTransform>
<g transform="translate(199.33144287930205 349.12019454374115)"><g transform="scale(0.5326375661524413)">
<path d="M5.3,1.8C4.2,1.2,2.6,1.7,1.8,2.6s-1,2.4-0.7,3.7c0.1,0.4,0.3,0.8,0.5,1.1C2,7.8,2.4,8,2.9,8.2c2.1,0.7,4.6-0.1,5.9-2 C8.9,6,9,5.8,9,5.6C9,5.4,8.9,5.2,8.8,5c-0.3-0.6-0.5-1.2-1-1.7C7.2,2.6,6.3,2.1,5.3,1.8z" fill="#ffffff" transform="translate(-5 -5)"></path>
</g></g></g><g transform="translate(0 26.2126)">
<animateTransform attributeName="transform" type="translate" values="0 0;0 200" keyTimes="0;1" repeatCount="indefinite" dur="5s" begin="-5.905313964557094s"></animateTransform>
<g transform="translate(198.0684362096391 -11.643223654829029)"><g transform="scale(0.6801443829680907)">
<path d="M3.1,3.7C3.9,2.9,5,2.5,5.8,1.8c0.3-0.3,0.6-0.6,1-0.7c0.6-0.2,1.2,0.1,1.7,0C8,3.3,8.2,5.6,8.2,7.8c0,0,0,0.1,0,0.1 c0,0.1-0.1,0.1-0.2,0.1c-1.3,0.5-2.7,0.3-4,0.8C3.9,8.9,3.8,9,3.6,9C3.4,9,3.3,8.9,3.2,8.7C2.9,8.4,1.7,7.1,1.4,7.3 C1.6,7,1.7,6.6,1.8,6.2L3.1,3.7z" fill="#ffffff" transform="translate(-5 -5)"></path>
</g></g></g><g transform="translate(0 26.2126)">
<animateTransform attributeName="transform" type="translate" values="0 0;0 200" keyTimes="0;1" repeatCount="indefinite" dur="5s" begin="-5.905313964557094s"></animateTransform>
<g transform="translate(198.0684362096391 188.35677634517097)"><g transform="scale(0.6801443829680907)">
<path d="M3.1,3.7C3.9,2.9,5,2.5,5.8,1.8c0.3-0.3,0.6-0.6,1-0.7c0.6-0.2,1.2,0.1,1.7,0C8,3.3,8.2,5.6,8.2,7.8c0,0,0,0.1,0,0.1 c0,0.1-0.1,0.1-0.2,0.1c-1.3,0.5-2.7,0.3-4,0.8C3.9,8.9,3.8,9,3.6,9C3.4,9,3.3,8.9,3.2,8.7C2.9,8.4,1.7,7.1,1.4,7.3 C1.6,7,1.7,6.6,1.8,6.2L3.1,3.7z" fill="#ffffff" transform="translate(-5 -5)"></path>
</g></g></g><g transform="translate(0 26.2126)">
<animateTransform attributeName="transform" type="translate" values="0 0;0 200" keyTimes="0;1" repeatCount="indefinite" dur="5s" begin="-5.905313964557094s"></animateTransform>
<g transform="translate(198.0684362096391 388.35677634517094)"><g transform="scale(0.6801443829680907)">
<path d="M3.1,3.7C3.9,2.9,5,2.5,5.8,1.8c0.3-0.3,0.6-0.6,1-0.7c0.6-0.2,1.2,0.1,1.7,0C8,3.3,8.2,5.6,8.2,7.8c0,0,0,0.1,0,0.1 c0,0.1-0.1,0.1-0.2,0.1c-1.3,0.5-2.7,0.3-4,0.8C3.9,8.9,3.8,9,3.6,9C3.4,9,3.3,8.9,3.2,8.7C2.9,8.4,1.7,7.1,1.4,7.3 C1.6,7,1.7,6.6,1.8,6.2L3.1,3.7z" fill="#ffffff" transform="translate(-5 -5)"></path>
</g></g></g>
  </pattern>
</defs>
<rect x="0" y="0" width="100%" height="100%" fill="url(#ldp-7df80fbf7f0a1)"></rect></svg>